<svg width="1025" height="495" viewBox="0 0 1025 495" fill="none" xmlns="http://www.w3.org/2000/svg">
<g clip-path="url(#clip0)">
<path d="M386.098 60.6496L378 37L544.909 158.204L580 199L539.51 172.985L386.098 60.6496Z" fill="black" stroke="black"/>
<path d="M282.5 116.5L271 88.5L343.5 127L368.5 37L370 73.5L355.5 134L534 231L499.5 229.5L351.5 151.5L334.5 224.5L314.5 251.5L338 145L282.5 116.5Z" fill="#653496" stroke="black"/>
<path d="M196 332L162 461L181 439.5L218 327L271.5 127.5L265 94L245 153L196 332Z" fill="black" stroke="black"/>
<path d="M304.821 249.578L331.481 320.418L358.078 249.578H378.835V342H362.839V311.531L364.426 270.779L337.131 342H325.642L298.41 270.843L299.997 311.531V342H284.001V249.578H304.821ZM437.995 335.271C433.467 340.604 427.035 343.27 418.698 343.27C411.25 343.27 405.601 341.09 401.75 336.731C397.941 332.373 396.037 326.067 396.037 317.815V273.318H411.462V317.625C411.462 326.342 415.08 330.701 422.316 330.701C429.807 330.701 434.864 328.014 437.487 322.64V273.318H452.912V342H438.376L437.995 335.271ZM507.121 323.338C507.121 320.587 505.979 318.493 503.693 317.054C501.451 315.615 497.705 314.345 492.458 313.245C487.211 312.145 482.831 310.748 479.318 309.056C471.617 305.332 467.766 299.936 467.766 292.869C467.766 286.945 470.262 281.993 475.256 278.016C480.249 274.038 486.597 272.049 494.299 272.049C502.508 272.049 509.131 274.08 514.167 278.143C519.245 282.205 521.784 287.474 521.784 293.948H506.359C506.359 290.986 505.259 288.532 503.059 286.585C500.858 284.596 497.938 283.602 494.299 283.602C490.913 283.602 488.142 284.384 485.983 285.95C483.868 287.516 482.81 289.611 482.81 292.234C482.81 294.604 483.804 296.445 485.793 297.757C487.782 299.069 491.802 300.402 497.854 301.756C503.905 303.068 508.645 304.655 512.072 306.517C515.542 308.336 518.103 310.537 519.753 313.118C521.446 315.7 522.292 318.831 522.292 322.513C522.292 328.691 519.732 333.706 514.611 337.557C509.491 341.365 502.784 343.27 494.489 343.27C488.861 343.27 483.846 342.254 479.445 340.223C475.044 338.191 471.617 335.398 469.162 331.844C466.708 328.289 465.48 324.459 465.48 320.354H480.461C480.673 323.994 482.048 326.808 484.587 328.797C487.126 330.743 490.49 331.717 494.68 331.717C498.742 331.717 501.831 330.955 503.947 329.432C506.063 327.866 507.121 325.835 507.121 323.338ZM552.189 342H536.765V273.318H552.189V342ZM535.812 255.481C535.812 253.112 536.553 251.144 538.034 249.578C539.558 248.012 541.716 247.229 544.509 247.229C547.302 247.229 549.46 248.012 550.983 249.578C552.507 251.144 553.269 253.112 553.269 255.481C553.269 257.809 552.507 259.756 550.983 261.321C549.46 262.845 547.302 263.606 544.509 263.606C541.716 263.606 539.558 262.845 538.034 261.321C536.553 259.756 535.812 257.809 535.812 255.481ZM597.258 330.955C601.109 330.955 604.304 329.834 606.843 327.591C609.382 325.348 610.736 322.576 610.905 319.275H625.441C625.272 323.549 623.939 327.549 621.442 331.272C618.946 334.954 615.56 337.874 611.286 340.032C607.012 342.19 602.399 343.27 597.448 343.27C587.842 343.27 580.225 340.159 574.597 333.938C568.968 327.718 566.154 319.127 566.154 308.167V306.58C566.154 296.128 568.947 287.77 574.533 281.507C580.119 275.201 587.736 272.049 597.385 272.049C605.552 272.049 612.196 274.44 617.316 279.222C622.479 283.961 625.188 290.203 625.441 297.947H610.905C610.736 294.012 609.382 290.774 606.843 288.235C604.346 285.696 601.151 284.427 597.258 284.427C592.264 284.427 588.413 286.246 585.705 289.886C582.997 293.483 581.621 298.963 581.579 306.326V308.802C581.579 316.25 582.912 321.814 585.578 325.496C588.286 329.135 592.18 330.955 597.258 330.955ZM741.477 311.912C740.546 321.772 736.906 329.474 730.559 335.018C724.211 340.519 715.769 343.27 705.231 343.27C697.868 343.27 691.372 341.535 685.744 338.064C680.158 334.552 675.842 329.58 672.795 323.147C669.748 316.715 668.161 309.246 668.034 300.74V292.107C668.034 283.39 669.579 275.709 672.668 269.065C675.757 262.422 680.179 257.301 685.935 253.704C691.732 250.107 698.418 248.309 705.993 248.309C716.192 248.309 724.401 251.08 730.622 256.624C736.843 262.168 740.461 269.996 741.477 280.11H725.48C724.719 273.466 722.772 268.685 719.641 265.765C716.551 262.802 712.002 261.321 705.993 261.321C699.011 261.321 693.636 263.882 689.87 269.002C686.146 274.08 684.242 281.549 684.157 291.409V299.598C684.157 309.585 685.935 317.202 689.489 322.449C693.086 327.697 698.334 330.32 705.231 330.32C711.537 330.32 716.276 328.903 719.45 326.067C722.624 323.232 724.634 318.514 725.48 311.912H741.477ZM770.803 342H755.378V273.318H770.803V342ZM754.426 255.481C754.426 253.112 755.166 251.144 756.647 249.578C758.171 248.012 760.329 247.229 763.122 247.229C765.915 247.229 768.073 248.012 769.597 249.578C771.12 251.144 771.882 253.112 771.882 255.481C771.882 257.809 771.12 259.756 769.597 261.321C768.073 262.845 765.915 263.606 763.122 263.606C760.329 263.606 758.171 262.845 756.647 261.321C755.166 259.756 754.426 257.809 754.426 255.481ZM806.984 256.624V273.318H819.108V284.744H806.984V323.084C806.984 325.708 807.492 327.612 808.508 328.797C809.566 329.939 811.428 330.511 814.094 330.511C815.871 330.511 817.67 330.299 819.489 329.876V341.81C815.977 342.783 812.591 343.27 809.333 343.27C797.484 343.27 791.56 336.731 791.56 323.655V284.744H780.261V273.318H791.56V256.624H806.984ZM854.973 319.91L868.938 273.318H885.378L858.083 352.41C853.894 363.963 846.784 369.739 836.755 369.739C834.512 369.739 832.036 369.358 829.328 368.597V356.663L832.248 356.854C836.141 356.854 839.061 356.134 841.008 354.695C842.997 353.299 844.562 350.929 845.705 347.586L847.927 341.683L823.806 273.318H840.437L854.973 319.91Z" fill="black"/>
<path d="M356.017 401.386C354.731 403.062 352.949 404.332 350.67 405.194C348.391 406.057 345.803 406.488 342.906 406.488C339.928 406.488 337.291 405.813 334.996 404.462C332.701 403.111 330.927 401.182 329.674 398.676C328.437 396.153 327.794 393.215 327.745 389.862V387.079C327.745 381.708 329.031 377.517 331.603 374.506C334.174 371.479 337.763 369.965 342.369 369.965C346.324 369.965 349.465 370.941 351.793 372.895C354.12 374.848 355.52 377.663 355.992 381.342H349.938C349.254 377.061 346.772 374.921 342.491 374.921C339.724 374.921 337.617 375.922 336.168 377.924C334.736 379.91 333.995 382.831 333.946 386.688V389.423C333.946 393.264 334.752 396.251 336.363 398.383C337.991 400.499 340.245 401.557 343.126 401.557C346.284 401.557 348.53 400.84 349.864 399.408V392.45H342.54V387.763H356.017V401.386ZM371.471 397.504L376.842 379.584H383.165L372.667 410.004C371.056 414.447 368.321 416.669 364.464 416.669C363.601 416.669 362.649 416.522 361.607 416.229V411.64L362.73 411.713C364.228 411.713 365.351 411.436 366.1 410.883C366.865 410.346 367.467 409.434 367.906 408.148L368.761 405.878L359.483 379.584H365.88L371.471 397.504ZM392.174 379.584L392.345 382.343C394.2 380.178 396.739 379.096 399.962 379.096C403.494 379.096 405.911 380.447 407.213 383.148C409.133 380.447 411.835 379.096 415.318 379.096C418.232 379.096 420.396 379.901 421.812 381.513C423.245 383.124 423.977 385.5 424.01 388.642V406H418.077V388.812C418.077 387.136 417.711 385.907 416.979 385.126C416.246 384.345 415.034 383.954 413.341 383.954C411.99 383.954 410.883 384.32 410.021 385.053C409.174 385.769 408.58 386.713 408.238 387.885L408.263 406H402.33V388.617C402.249 385.508 400.662 383.954 397.569 383.954C395.193 383.954 393.508 384.923 392.516 386.859V406H386.583V379.584H392.174ZM435.606 379.584L435.777 382.636C437.73 380.276 440.294 379.096 443.468 379.096C448.969 379.096 451.769 382.245 451.866 388.544V406H445.934V388.886C445.934 387.209 445.567 385.972 444.835 385.175C444.119 384.361 442.939 383.954 441.295 383.954C438.902 383.954 437.12 385.036 435.948 387.201V406H430.016V379.584H435.606ZM473.717 406C473.456 405.495 473.229 404.674 473.033 403.534C471.145 405.504 468.834 406.488 466.1 406.488C463.447 406.488 461.282 405.731 459.605 404.218C457.929 402.704 457.091 400.832 457.091 398.603C457.091 395.787 458.132 393.63 460.216 392.133C462.315 390.619 465.31 389.862 469.2 389.862H472.838V388.129C472.838 386.762 472.455 385.671 471.69 384.857C470.925 384.027 469.762 383.612 468.199 383.612C466.848 383.612 465.742 383.954 464.879 384.638C464.016 385.305 463.585 386.16 463.585 387.201H457.652C457.652 385.753 458.132 384.402 459.093 383.148C460.053 381.879 461.355 380.886 462.999 380.17C464.659 379.454 466.507 379.096 468.541 379.096C471.633 379.096 474.099 379.877 475.938 381.439C477.778 382.986 478.722 385.167 478.771 387.982V399.896C478.771 402.273 479.104 404.169 479.771 405.585V406H473.717ZM467.198 401.728C468.37 401.728 469.469 401.443 470.494 400.873C471.536 400.303 472.317 399.538 472.838 398.578V393.598H469.64C467.442 393.598 465.79 393.98 464.684 394.745C463.577 395.51 463.023 396.592 463.023 397.992C463.023 399.132 463.398 400.043 464.146 400.727C464.911 401.394 465.929 401.728 467.198 401.728ZM499.791 398.822C499.791 397.764 499.352 396.959 498.473 396.405C497.61 395.852 496.17 395.364 494.151 394.94C492.133 394.517 490.449 393.98 489.098 393.329C486.135 391.897 484.654 389.822 484.654 387.104C484.654 384.825 485.615 382.921 487.535 381.391C489.456 379.861 491.897 379.096 494.859 379.096C498.017 379.096 500.564 379.877 502.501 381.439C504.454 383.002 505.431 385.028 505.431 387.519H499.498C499.498 386.379 499.075 385.435 498.229 384.687C497.382 383.922 496.259 383.539 494.859 383.539C493.557 383.539 492.491 383.84 491.661 384.442C490.847 385.045 490.44 385.85 490.44 386.859C490.44 387.771 490.823 388.479 491.588 388.983C492.353 389.488 493.899 390.001 496.227 390.521C498.554 391.026 500.377 391.636 501.695 392.353C503.03 393.052 504.015 393.899 504.649 394.892C505.3 395.884 505.626 397.089 505.626 398.505C505.626 400.881 504.641 402.81 502.672 404.291C500.702 405.756 498.123 406.488 494.933 406.488C492.768 406.488 490.839 406.098 489.146 405.316C487.454 404.535 486.135 403.461 485.191 402.094C484.247 400.727 483.775 399.254 483.775 397.675H489.537C489.618 399.075 490.147 400.157 491.124 400.922C492.101 401.671 493.395 402.045 495.006 402.045C496.568 402.045 497.757 401.752 498.57 401.166C499.384 400.564 499.791 399.783 499.791 398.822ZM518.248 373.163V379.584H522.911V383.979H518.248V398.725C518.248 399.734 518.443 400.466 518.834 400.922C519.241 401.361 519.957 401.581 520.982 401.581C521.666 401.581 522.358 401.5 523.058 401.337V405.927C521.707 406.301 520.405 406.488 519.151 406.488C514.594 406.488 512.315 403.974 512.315 398.944V383.979H507.97V379.584H512.315V373.163H518.248ZM533.775 406H527.843V379.584H533.775V406ZM527.477 372.724C527.477 371.812 527.761 371.055 528.331 370.453C528.917 369.851 529.747 369.55 530.821 369.55C531.896 369.55 532.726 369.851 533.312 370.453C533.897 371.055 534.19 371.812 534.19 372.724C534.19 373.619 533.897 374.368 533.312 374.97C532.726 375.556 531.896 375.849 530.821 375.849C529.747 375.849 528.917 375.556 528.331 374.97C527.761 374.368 527.477 373.619 527.477 372.724ZM551.109 401.752C552.59 401.752 553.819 401.321 554.796 400.458C555.772 399.595 556.293 398.529 556.358 397.26H561.949C561.884 398.904 561.371 400.442 560.411 401.874C559.451 403.29 558.149 404.413 556.505 405.243C554.861 406.073 553.087 406.488 551.183 406.488C547.488 406.488 544.558 405.292 542.394 402.899C540.229 400.507 539.146 397.203 539.146 392.987V392.377C539.146 388.357 540.221 385.142 542.369 382.733C544.518 380.308 547.447 379.096 551.158 379.096C554.299 379.096 556.855 380.015 558.824 381.854C560.81 383.677 561.852 386.078 561.949 389.057H556.358C556.293 387.543 555.772 386.298 554.796 385.321C553.836 384.345 552.607 383.856 551.109 383.856C549.189 383.856 547.708 384.556 546.666 385.956C545.624 387.34 545.095 389.447 545.079 392.279V393.231C545.079 396.096 545.592 398.236 546.617 399.652C547.659 401.052 549.156 401.752 551.109 401.752ZM581.236 398.822C581.236 397.764 580.797 396.959 579.918 396.405C579.055 395.852 577.615 395.364 575.597 394.94C573.578 394.517 571.894 393.98 570.543 393.329C567.581 391.897 566.1 389.822 566.1 387.104C566.1 384.825 567.06 382.921 568.98 381.391C570.901 379.861 573.342 379.096 576.305 379.096C579.462 379.096 582.009 379.877 583.946 381.439C585.899 383.002 586.876 385.028 586.876 387.519H580.943C580.943 386.379 580.52 385.435 579.674 384.687C578.827 383.922 577.704 383.539 576.305 383.539C575.003 383.539 573.937 383.84 573.106 384.442C572.293 385.045 571.886 385.85 571.886 386.859C571.886 387.771 572.268 388.479 573.033 388.983C573.798 389.488 575.344 390.001 577.672 390.521C579.999 391.026 581.822 391.636 583.141 392.353C584.475 393.052 585.46 393.899 586.095 394.892C586.746 395.884 587.071 397.089 587.071 398.505C587.071 400.881 586.087 402.81 584.117 404.291C582.148 405.756 579.568 406.488 576.378 406.488C574.213 406.488 572.285 406.098 570.592 405.316C568.899 404.535 567.581 403.461 566.637 402.094C565.693 400.727 565.221 399.254 565.221 397.675H570.982C571.064 399.075 571.593 400.157 572.569 400.922C573.546 401.671 574.84 402.045 576.451 402.045C578.014 402.045 579.202 401.752 580.016 401.166C580.829 400.564 581.236 399.783 581.236 398.822ZM603.771 396.405C603.771 394.761 604.218 393.256 605.113 391.889C606.008 390.505 607.774 388.869 610.411 386.981C609.028 385.24 608.059 383.759 607.506 382.538C606.969 381.317 606.7 380.137 606.7 378.998C606.7 376.215 607.547 374.018 609.239 372.406C610.932 370.779 613.211 369.965 616.075 369.965C618.663 369.965 620.779 370.73 622.423 372.26C624.083 373.773 624.913 375.653 624.913 377.899C624.913 379.381 624.539 380.748 623.79 382.001C623.041 383.238 621.812 384.475 620.104 385.712L617.687 387.47L624.547 395.575C625.54 393.622 626.036 391.449 626.036 389.057H631.188C631.188 393.435 630.162 397.024 628.111 399.823L633.336 406H626.451L624.449 403.632C621.91 405.536 618.883 406.488 615.367 406.488C611.852 406.488 609.036 405.561 606.92 403.705C604.82 401.833 603.771 399.4 603.771 396.405ZM615.538 401.752C617.54 401.752 619.412 401.085 621.153 399.75L613.39 390.595L612.633 391.132C610.68 392.613 609.703 394.306 609.703 396.21C609.703 397.854 610.232 399.188 611.29 400.214C612.348 401.239 613.764 401.752 615.538 401.752ZM612.267 378.852C612.267 380.219 613.105 381.936 614.781 384.003L617.491 382.147L618.248 381.537C619.257 380.642 619.762 379.494 619.762 378.095C619.762 377.167 619.412 376.378 618.712 375.727C618.012 375.059 617.125 374.726 616.051 374.726C614.895 374.726 613.976 375.116 613.292 375.897C612.608 376.679 612.267 377.663 612.267 378.852ZM676.842 394.428C676.484 398.22 675.084 401.182 672.643 403.314C670.201 405.43 666.954 406.488 662.901 406.488C660.069 406.488 657.571 405.821 655.406 404.486C653.258 403.135 651.598 401.223 650.426 398.749C649.254 396.275 648.644 393.402 648.595 390.131V386.811C648.595 383.458 649.189 380.504 650.377 377.948C651.565 375.393 653.266 373.424 655.479 372.04C657.709 370.657 660.281 369.965 663.194 369.965C667.117 369.965 670.274 371.031 672.667 373.163C675.06 375.295 676.451 378.306 676.842 382.196H670.689C670.396 379.641 669.648 377.802 668.443 376.679C667.255 375.539 665.506 374.97 663.194 374.97C660.509 374.97 658.442 375.954 656.993 377.924C655.561 379.877 654.828 382.75 654.796 386.542V389.691C654.796 393.533 655.479 396.462 656.847 398.48C658.23 400.499 660.248 401.508 662.901 401.508C665.326 401.508 667.149 400.963 668.37 399.872C669.591 398.782 670.364 396.967 670.689 394.428H676.842ZM687.657 382.465C689.594 380.219 692.044 379.096 695.006 379.096C700.637 379.096 703.494 382.31 703.575 388.739V406H697.643V388.959C697.643 387.136 697.244 385.85 696.446 385.102C695.665 384.337 694.509 383.954 692.979 383.954C690.603 383.954 688.829 385.012 687.657 387.128V406H681.725V368.5H687.657V382.465ZM721.227 406.488C717.467 406.488 714.415 405.308 712.071 402.948C709.744 400.572 708.58 397.414 708.58 393.476V392.743C708.58 390.106 709.085 387.755 710.094 385.688C711.119 383.604 712.551 381.985 714.391 380.829C716.23 379.674 718.281 379.096 720.543 379.096C724.14 379.096 726.915 380.243 728.868 382.538C730.838 384.833 731.822 388.08 731.822 392.279V394.672H714.562C714.741 396.853 715.465 398.578 716.734 399.848C718.02 401.117 719.632 401.752 721.568 401.752C724.286 401.752 726.5 400.653 728.209 398.456L731.407 401.508C730.349 403.087 728.933 404.315 727.159 405.194C725.401 406.057 723.424 406.488 721.227 406.488ZM720.519 383.856C718.891 383.856 717.573 384.426 716.563 385.565C715.571 386.705 714.936 388.292 714.659 390.326H725.963V389.887C725.833 387.901 725.304 386.404 724.376 385.395C723.448 384.369 722.162 383.856 720.519 383.856ZM748.082 406.488C744.322 406.488 741.271 405.308 738.927 402.948C736.599 400.572 735.436 397.414 735.436 393.476V392.743C735.436 390.106 735.94 387.755 736.949 385.688C737.975 383.604 739.407 381.985 741.246 380.829C743.085 379.674 745.136 379.096 747.398 379.096C750.995 379.096 753.771 380.243 755.724 382.538C757.693 384.833 758.678 388.08 758.678 392.279V394.672H741.417C741.596 396.853 742.32 398.578 743.59 399.848C744.876 401.117 746.487 401.752 748.424 401.752C751.142 401.752 753.355 400.653 755.064 398.456L758.263 401.508C757.205 403.087 755.789 404.315 754.015 405.194C752.257 406.057 750.279 406.488 748.082 406.488ZM747.374 383.856C745.746 383.856 744.428 384.426 743.419 385.565C742.426 386.705 741.791 388.292 741.515 390.326H752.818V389.887C752.688 387.901 752.159 386.404 751.231 385.395C750.304 384.369 749.018 383.856 747.374 383.856ZM777.135 385.004C776.354 384.874 775.548 384.809 774.718 384.809C772 384.809 770.169 385.85 769.225 387.934V406H763.292V379.584H768.956L769.103 382.538C770.535 380.243 772.521 379.096 775.06 379.096C775.906 379.096 776.606 379.21 777.159 379.438L777.135 385.004Z" fill="black"/>
</g>
<defs>
<clipPath id="clip0">
<rect width="1025" height="495" rx="5" fill="white"/>
</clipPath>
</defs>
</svg>
