<svg id="svg" version="1.1" xmlns="http://www.w3.org/2000/svg" xmlns:xlink="http://www.w3.org/1999/xlink" width="400" height="404.04040404040404" viewBox="0, 0, 400,404.04040404040404"><g id="svgg"><path id="path0" d="M269.000 6.778 C 267.900 6.961,265.571 7.492,263.825 7.956 C 260.141 8.935,258.299 8.980,248.858 8.320 C 240.017 7.702,235.721 8.259,225.400 11.364 C 221.440 12.556,213.070 14.910,206.800 16.595 C 183.368 22.894,184.074 22.638,176.722 27.471 C 172.315 30.367,168.806 32.064,163.200 34.008 C 161.110 34.733,154.360 37.211,148.200 39.513 C 134.684 44.566,131.583 45.398,117.424 47.771 C 105.496 49.770,97.891 51.725,91.055 54.550 C 75.322 61.051,65.825 73.377,79.006 70.187 C 81.203 69.655,83.619 69.121,84.376 69.000 C 85.133 68.879,86.738 68.020,87.943 67.090 L 90.135 65.400 95.168 65.400 C 101.433 65.400,102.548 65.848,107.327 70.287 C 112.530 75.119,116.935 77.078,120.185 76.005 C 121.440 75.591,124.400 72.738,124.400 71.943 C 124.400 70.722,126.390 66.759,127.738 65.297 C 131.468 61.250,134.584 60.444,148.200 59.999 C 166.478 59.403,175.519 57.535,180.200 53.388 C 181.941 51.846,182.769 51.481,190.034 49.059 C 203.819 44.462,208.302 45.179,204.561 51.384 C 198.929 60.723,194.915 71.999,193.447 82.600 C 192.807 87.222,190.526 95.563,188.213 101.740 C 185.683 108.494,184.306 115.770,183.620 126.000 C 183.392 129.410,182.475 136.790,181.584 142.400 C 180.692 148.010,179.170 159.574,178.201 168.097 C 176.469 183.341,176.396 183.763,173.782 193.897 C 170.187 207.832,169.460 210.311,168.296 212.620 C 164.484 220.184,162.681 227.525,162.635 235.668 C 162.593 243.113,162.846 243.727,166.437 244.916 C 171.261 246.512,172.851 245.100,174.859 237.436 C 177.188 228.547,180.651 223.215,184.114 223.186 C 195.759 223.090,202.135 217.240,196.909 211.448 C 193.290 207.437,192.735 203.766,194.121 193.000 C 195.253 184.206,195.649 183.195,201.320 174.600 C 208.295 164.028,209.937 157.951,210.794 139.545 C 211.215 130.491,211.521 128.335,213.599 119.800 C 215.430 112.281,216.842 109.568,220.759 106.037 C 228.842 98.750,233.888 91.130,237.003 81.504 C 240.109 71.908,244.859 68.400,254.745 68.400 C 259.049 68.400,259.051 68.399,261.666 66.822 C 267.586 63.252,269.014 64.489,266.998 71.444 C 265.137 77.866,265.280 84.192,267.439 90.976 C 268.903 95.573,269.119 97.424,268.748 102.175 C 268.055 111.055,267.100 111.788,253.070 114.206 C 247.486 115.169,247.023 115.460,245.368 119.041 C 243.674 122.709,243.728 122.785,248.041 122.794 C 253.791 122.805,254.945 124.364,254.576 131.617 C 254.166 139.659,256.794 143.197,264.136 144.485 C 267.409 145.059,268.002 145.509,270.531 149.339 C 273.907 154.450,278.149 158.040,284.547 161.200 C 289.667 163.729,291.597 168.043,293.226 180.600 C 294.702 191.970,295.610 195.400,300.799 209.200 C 302.826 214.590,304.825 219.941,305.242 221.090 C 307.534 227.412,302.295 236.783,292.965 243.049 C 290.490 244.712,287.622 246.962,286.592 248.050 C 285.562 249.137,283.838 250.474,282.760 251.020 C 280.524 252.153,280.156 253.324,281.800 254.073 C 284.373 255.245,282.816 257.793,277.694 260.795 C 273.000 263.546,271.763 265.773,273.618 268.132 C 275.512 270.540,279.166 270.258,280.800 267.577 C 282.783 264.325,284.430 264.542,283.612 267.949 C 282.563 272.323,285.310 271.822,290.840 266.630 C 295.599 262.161,300.085 260.085,301.633 261.633 C 302.639 262.639,302.559 263.375,300.987 267.611 C 298.757 273.616,301.227 274.772,305.235 269.600 C 310.546 262.747,311.683 263.232,308.999 271.203 C 307.474 275.732,307.495 276.684,309.127 277.017 C 309.717 277.138,310.851 277.408,311.646 277.618 C 314.000 278.240,314.785 278.075,316.508 276.600 C 317.408 275.830,318.337 275.200,318.572 275.200 C 322.529 275.197,326.595 270.180,330.570 260.397 C 332.678 255.210,333.563 255.020,338.957 258.602 C 343.527 261.636,344.005 261.796,346.400 261.096 C 349.612 260.157,349.200 258.795,344.600 255.146 C 343.060 253.924,341.531 252.600,341.203 252.204 C 340.875 251.808,338.191 249.311,335.239 246.655 L 329.872 241.826 327.236 236.413 C 323.387 228.510,323.421 227.078,327.663 218.200 C 330.851 211.527,331.795 209.014,332.997 204.000 C 333.392 202.350,334.306 199.712,335.027 198.137 C 339.025 189.411,342.149 178.642,342.669 171.800 C 342.786 170.260,343.496 167.059,344.247 164.688 C 350.410 145.228,351.758 129.542,348.780 111.926 C 347.743 105.788,348.274 95.606,350.065 87.335 C 350.625 84.747,349.844 69.983,348.926 65.800 C 348.217 62.569,346.379 57.928,343.729 52.676 C 342.709 50.654,340.375 45.679,338.543 41.620 C 331.287 25.539,324.093 18.385,308.285 11.529 C 299.177 7.578,278.892 5.125,269.000 6.778 M319.953 118.753 C 320.367 119.167,321.269 121.012,321.958 122.853 C 322.647 124.694,323.783 127.370,324.483 128.800 C 326.097 132.098,326.493 138.428,325.437 144.062 C 324.181 150.766,323.570 156.722,323.207 165.800 C 322.803 175.897,322.575 177.088,320.057 182.224 C 316.347 189.795,314.024 187.899,311.402 175.159 C 310.384 170.215,309.015 165.247,307.642 161.510 C 305.907 156.791,309.307 151.200,313.913 151.200 C 317.799 151.200,322.230 141.705,321.221 135.541 C 320.625 131.906,320.352 131.122,318.301 127.152 C 316.107 122.909,315.970 121.163,317.662 119.012 C 318.614 117.802,318.962 117.762,319.953 118.753 M14.600 288.745 C 10.379 289.862,10.308 290.189,10.102 309.532 C 9.879 330.367,8.921 328.336,19.200 328.816 C 22.830 328.986,39.750 330.501,56.800 332.183 C 73.850 333.864,100.580 336.494,116.200 338.026 C 210.846 347.310,221.742 348.388,223.200 348.603 C 223.970 348.717,227.175 348.989,230.323 349.207 C 238.043 349.742,238.751 350.182,242.396 356.715 C 243.342 358.412,245.379 361.780,246.921 364.200 C 252.132 372.374,264.101 391.386,265.294 393.385 C 267.055 396.334,267.309 396.461,271.080 396.263 C 279.535 395.820,280.667 393.003,275.252 385.883 C 269.408 378.200,264.314 369.874,259.449 360.053 C 255.350 351.779,255.354 351.775,266.259 352.379 C 270.407 352.608,278.480 352.977,284.200 353.199 C 311.791 354.269,317.677 354.572,335.200 355.828 C 349.414 356.846,349.619 355.670,332.389 371.968 C 328.105 376.020,322.530 381.317,320.000 383.738 C 317.470 386.159,314.294 389.197,312.941 390.490 C 308.796 394.453,309.244 395.679,315.200 396.656 C 324.981 398.260,324.426 398.435,331.885 391.393 C 348.937 375.292,353.436 371.017,357.605 366.953 C 362.992 361.701,361.260 362.301,376.403 360.439 C 387.218 359.109,388.505 358.872,389.308 358.069 C 390.411 356.965,390.417 357.415,389.056 338.200 C 388.480 330.060,387.814 320.340,387.576 316.600 C 386.828 304.834,388.221 305.780,371.200 305.473 C 361.319 305.294,266.661 301.198,249.800 300.219 C 247.820 300.104,244.130 299.914,241.600 299.797 C 231.760 299.342,201.003 297.948,175.800 296.815 C 161.280 296.163,147.780 295.537,145.800 295.425 C 143.820 295.313,139.860 295.122,137.000 295.000 C 134.140 294.878,130.180 294.694,128.200 294.589 C 125.015 294.422,119.073 294.158,101.200 293.391 C 98.450 293.273,92.960 293.002,89.000 292.789 C 85.040 292.577,73.700 292.042,63.800 291.601 C 41.319 290.601,33.390 290.110,27.800 289.372 C 22.142 288.626,16.129 288.340,14.600 288.745 " stroke="none" fill="#040404" fill-rule="evenodd"></path><path id="path1" d="M0.000 202.000 L 0.000 404.000 200.000 404.000 L 400.000 404.000 400.000 202.000 L 400.000 0.000 200.000 0.000 L 0.000 0.000 0.000 202.000 M291.796 6.992 C 303.916 8.336,313.016 12.134,324.000 20.432 C 330.603 25.420,334.503 30.910,338.944 41.465 C 339.514 42.821,341.676 47.501,343.748 51.865 C 348.568 62.016,349.463 64.866,349.977 71.683 C 350.761 82.077,350.758 85.545,349.962 89.675 C 348.621 96.632,348.160 106.112,348.940 110.683 C 351.968 128.435,350.656 145.664,344.881 164.000 C 343.915 167.068,343.209 170.216,343.054 172.147 C 342.517 178.856,339.976 187.816,336.039 196.885 C 334.961 199.368,333.524 203.529,332.847 206.131 C 331.942 209.604,330.735 212.688,328.307 217.731 C 323.798 227.097,323.743 228.458,327.561 236.290 L 330.123 241.543 335.485 246.472 C 338.435 249.182,342.533 252.798,344.594 254.507 C 349.772 258.803,350.136 260.608,346.023 261.595 C 343.752 262.139,342.633 261.695,337.674 258.279 C 333.320 255.281,333.246 255.326,329.725 263.200 C 326.153 271.185,324.159 273.606,320.000 275.003 C 319.010 275.335,317.410 276.235,316.444 277.004 C 314.588 278.479,314.025 278.616,312.160 278.045 C 311.522 277.850,310.246 277.486,309.324 277.236 C 306.962 276.597,306.908 275.946,308.779 270.659 C 311.325 263.463,310.838 263.307,305.686 269.668 C 300.891 275.588,297.952 274.113,300.645 267.138 C 303.549 259.620,299.106 259.577,291.074 267.045 C 287.928 269.971,285.288 271.409,283.764 271.027 C 282.645 270.746,282.600 270.391,283.361 267.863 C 284.256 264.890,282.977 264.866,281.000 267.819 C 278.595 271.411,273.331 270.637,272.570 266.578 C 272.136 264.270,272.995 263.224,277.673 260.362 C 283.164 257.002,283.727 256.136,281.566 254.372 C 279.867 252.986,280.316 251.547,282.751 250.573 C 283.613 250.228,285.171 249.046,286.211 247.947 C 287.252 246.848,290.015 244.666,292.352 243.099 C 298.584 238.919,300.330 236.999,303.196 231.176 C 305.941 225.597,306.089 224.533,304.650 220.718 C 294.824 194.678,294.477 193.506,292.842 180.800 C 291.669 171.687,289.218 164.090,286.977 162.621 C 286.454 162.279,285.079 161.625,283.921 161.169 C 279.560 159.450,273.428 154.287,270.377 149.766 C 267.973 146.204,266.863 145.308,264.472 144.999 C 257.044 144.040,253.757 139.766,254.181 131.617 C 254.550 124.533,253.658 123.250,248.200 123.010 C 246.880 122.952,245.395 122.881,244.900 122.852 C 243.676 122.781,243.740 121.854,245.192 118.618 C 246.569 115.549,247.815 114.764,252.504 114.015 C 266.372 111.800,267.647 110.832,268.370 101.966 C 268.775 96.996,268.631 95.822,267.000 90.800 C 264.653 83.570,264.618 78.225,266.865 70.314 C 268.402 64.901,266.947 63.901,262.159 67.080 L 259.893 68.585 254.046 68.813 C 243.978 69.207,240.210 72.265,236.814 82.800 C 234.174 90.991,229.731 97.869,222.673 104.691 C 216.473 110.684,215.922 111.739,213.402 122.439 C 211.940 128.648,211.694 130.822,210.809 145.400 C 209.977 159.112,207.883 165.376,200.380 176.600 C 196.126 182.964,195.430 184.799,194.607 191.813 C 194.297 194.460,193.854 197.811,193.622 199.261 C 192.921 203.650,194.152 207.712,197.337 211.524 C 202.125 217.256,197.430 222.354,186.400 223.400 C 182.548 223.765,182.216 223.876,180.887 225.236 C 178.594 227.581,176.048 233.661,174.405 240.719 C 173.277 245.559,167.736 247.321,163.891 244.061 C 160.164 240.901,162.500 223.244,168.108 212.181 C 168.671 211.070,170.667 204.230,172.544 196.981 L 175.957 183.800 177.768 167.800 C 178.763 159.000,179.749 150.900,179.959 149.800 C 181.050 144.081,183.170 128.011,183.370 123.944 C 183.780 115.589,185.252 108.663,188.585 99.400 C 190.852 93.100,193.200 84.695,193.200 82.881 C 193.200 76.312,199.091 59.430,204.153 51.494 C 208.144 45.237,203.513 44.712,189.016 49.776 C 185.513 50.999,182.603 52.000,182.548 52.000 C 182.493 52.000,181.611 52.725,180.588 53.610 C 175.332 58.160,167.850 59.753,148.800 60.381 C 131.864 60.940,128.011 62.589,125.080 70.535 C 123.074 75.974,119.881 77.593,114.738 75.778 C 112.506 74.991,109.324 72.784,106.362 69.971 C 102.456 66.261,101.219 65.800,95.164 65.800 L 90.128 65.800 88.347 67.259 C 86.527 68.749,85.992 68.947,79.914 70.379 C 70.512 72.594,69.685 68.537,78.156 61.760 C 87.324 54.425,97.295 50.752,116.600 47.598 C 128.475 45.658,134.997 44.256,138.000 42.999 C 140.271 42.049,148.568 38.980,158.000 35.602 C 169.865 31.353,170.607 31.006,177.579 26.446 C 182.640 23.136,186.290 21.554,192.491 19.984 C 200.123 18.050,218.660 12.979,224.600 11.200 C 236.060 7.766,239.209 7.434,253.600 8.146 C 260.172 8.472,260.808 8.438,264.000 7.604 C 270.422 5.926,280.232 5.710,291.796 6.992 M317.400 119.857 C 316.397 121.971,316.781 124.149,318.726 127.374 C 323.947 136.031,320.716 151.600,313.697 151.600 C 309.179 151.600,306.308 157.004,308.178 161.992 C 309.432 165.337,310.919 171.020,312.001 176.600 C 314.151 187.694,316.703 189.047,320.298 181.000 C 322.474 176.131,322.409 176.496,322.797 167.000 C 323.154 158.263,323.939 150.615,325.076 144.800 C 326.194 139.079,326.024 133.108,324.660 130.200 C 324.041 128.880,322.930 126.120,322.191 124.066 C 320.025 118.045,318.779 116.950,317.400 119.857 M28.800 289.200 C 35.729 289.990,36.562 290.042,58.000 291.004 C 65.370 291.335,83.010 292.144,97.200 292.802 C 251.312 299.946,362.728 304.891,372.277 305.010 C 388.293 305.209,387.206 304.339,387.994 317.600 C 388.275 322.330,388.976 332.896,389.552 341.080 C 390.129 349.264,390.506 356.358,390.390 356.844 C 389.869 359.042,388.942 359.260,371.805 361.213 C 362.314 362.295,363.534 361.593,352.332 372.416 C 347.199 377.374,341.380 382.961,339.400 384.831 C 337.420 386.700,334.540 389.421,333.000 390.877 C 324.787 398.640,324.980 398.552,318.631 397.428 C 316.854 397.113,314.542 396.741,313.493 396.602 C 309.295 396.045,308.824 394.060,312.102 390.739 C 314.054 388.761,327.678 375.820,334.799 369.180 C 347.677 357.172,347.958 356.425,339.600 356.395 C 338.170 356.390,335.311 356.208,333.246 355.991 C 331.181 355.773,324.791 355.337,319.046 355.020 C 309.156 354.476,304.347 354.266,290.800 353.789 C 284.113 353.554,280.119 353.377,267.492 352.760 C 255.299 352.164,255.736 351.674,260.317 360.800 C 265.333 370.794,269.944 378.286,275.937 386.179 C 280.473 392.153,279.958 394.818,274.002 396.172 C 268.127 397.509,267.072 397.083,264.042 392.152 C 260.227 385.945,252.023 372.873,248.273 367.028 C 246.307 363.963,243.836 359.867,242.780 357.924 C 239.083 351.119,237.866 350.133,232.728 349.778 C 227.871 349.442,75.252 334.534,61.000 333.004 C 57.920 332.673,53.510 332.228,51.200 332.014 C 48.890 331.801,41.690 331.080,35.200 330.413 C 28.710 329.746,21.564 329.201,19.320 329.200 C 8.936 329.199,9.556 330.462,9.840 309.888 C 10.171 285.849,9.154 286.959,28.800 289.200 " stroke="none" fill="#fbfbfb" fill-rule="evenodd"></path><path id="path2" d="M150.900 60.276 C 151.285 60.376,151.915 60.376,152.300 60.276 C 152.685 60.175,152.370 60.093,151.600 60.093 C 150.830 60.093,150.515 60.175,150.900 60.276 M92.700 65.482 C 93.195 65.578,94.005 65.578,94.500 65.482 C 94.995 65.387,94.590 65.309,93.600 65.309 C 92.610 65.309,92.205 65.387,92.700 65.482 M162.114 237.400 C 162.117 238.500,162.195 238.903,162.287 238.295 C 162.379 237.686,162.377 236.786,162.282 236.295 C 162.187 235.803,162.111 236.300,162.114 237.400 M298.575 238.500 L 297.400 239.800 298.700 238.625 C 299.912 237.530,300.184 237.200,299.875 237.200 C 299.806 237.200,299.221 237.785,298.575 238.500 M270.900 301.076 C 271.285 301.176,271.915 301.176,272.300 301.076 C 272.685 300.975,272.370 300.893,271.600 300.893 C 270.830 300.893,270.515 300.975,270.900 301.076 M306.100 302.676 C 306.485 302.776,307.115 302.776,307.500 302.676 C 307.885 302.575,307.570 302.493,306.800 302.493 C 306.030 302.493,305.715 302.575,306.100 302.676 M314.900 303.076 C 315.285 303.176,315.915 303.176,316.300 303.076 C 316.685 302.975,316.370 302.893,315.600 302.893 C 314.830 302.893,314.515 302.975,314.900 303.076 " stroke="none" fill="#7c7c7c" fill-rule="evenodd"></path><path id="path3" d="M276.700 6.293 C 277.635 6.377,279.165 6.377,280.100 6.293 C 281.035 6.209,280.270 6.140,278.400 6.140 C 276.530 6.140,275.765 6.209,276.700 6.293 M241.911 7.893 C 242.851 7.978,244.291 7.977,245.111 7.891 C 245.930 7.805,245.160 7.736,243.400 7.737 C 241.640 7.739,240.970 7.809,241.911 7.893 M256.707 8.690 C 257.426 8.779,258.506 8.777,259.107 8.686 C 259.708 8.595,259.120 8.522,257.800 8.524 C 256.480 8.526,255.988 8.601,256.707 8.690 M182.300 23.429 C 180.749 24.270,180.925 24.561,182.500 23.759 C 184.008 22.993,184.275 22.794,183.767 22.816 C 183.565 22.825,182.905 23.101,182.300 23.429 M153.705 60.287 C 154.314 60.379,155.214 60.377,155.705 60.282 C 156.197 60.187,155.700 60.111,154.600 60.114 C 153.500 60.117,153.097 60.195,153.705 60.287 M138.900 60.676 C 139.285 60.776,139.915 60.776,140.300 60.676 C 140.685 60.575,140.370 60.493,139.600 60.493 C 138.830 60.493,138.515 60.575,138.900 60.676 M74.975 64.500 L 73.800 65.800 75.100 64.625 C 76.312 63.530,76.584 63.200,76.275 63.200 C 76.206 63.200,75.621 63.785,74.975 64.500 M350.109 75.600 C 350.109 76.590,350.187 76.995,350.282 76.500 C 350.378 76.005,350.378 75.195,350.282 74.700 C 350.187 74.205,350.109 74.610,350.109 75.600 M265.342 80.200 C 265.341 82.180,265.408 83.040,265.492 82.112 C 265.576 81.184,265.577 79.564,265.495 78.512 C 265.412 77.460,265.343 78.220,265.342 80.200 M268.514 100.600 C 268.517 101.700,268.595 102.103,268.687 101.495 C 268.779 100.886,268.777 99.986,268.682 99.495 C 268.587 99.003,268.511 99.500,268.514 100.600 M225.578 101.500 L 224.200 103.000 225.700 101.622 C 227.096 100.338,227.384 100.000,227.078 100.000 C 227.012 100.000,226.337 100.675,225.578 101.500 M220.778 106.300 L 219.400 107.800 220.900 106.422 C 222.296 105.138,222.584 104.800,222.278 104.800 C 222.212 104.800,221.537 105.475,220.778 106.300 M183.693 119.600 C 183.693 120.370,183.775 120.685,183.876 120.300 C 183.976 119.915,183.976 119.285,183.876 118.900 C 183.775 118.515,183.693 118.830,183.693 119.600 M183.340 125.600 C 183.340 127.470,183.409 128.235,183.493 127.300 C 183.577 126.365,183.577 124.835,183.493 123.900 C 183.409 122.965,183.340 123.730,183.340 125.600 M211.301 133.000 C 211.305 133.880,211.387 134.193,211.483 133.695 C 211.579 133.198,211.575 132.478,211.475 132.095 C 211.375 131.713,211.296 132.120,211.301 133.000 M210.937 141.400 C 210.939 143.160,211.009 143.830,211.093 142.889 C 211.178 141.949,211.177 140.509,211.091 139.689 C 211.005 138.870,210.936 139.640,210.937 141.400 M256.800 141.400 C 257.546 142.170,258.247 142.800,258.357 142.800 C 258.467 142.800,257.946 142.170,257.200 141.400 C 256.454 140.630,255.753 140.000,255.643 140.000 C 255.533 140.000,256.054 140.630,256.800 141.400 M210.493 148.400 C 210.493 149.170,210.575 149.485,210.676 149.100 C 210.776 148.715,210.776 148.085,210.676 147.700 C 210.575 147.315,210.493 147.630,210.493 148.400 M322.946 165.400 C 322.947 167.600,323.014 168.449,323.095 167.287 C 323.176 166.124,323.176 164.324,323.093 163.287 C 323.011 162.249,322.945 163.200,322.946 165.400 M184.300 223.482 C 184.795 223.578,185.605 223.578,186.100 223.482 C 186.595 223.387,186.190 223.309,185.200 223.309 C 184.210 223.309,183.805 223.387,184.300 223.482 M305.693 224.400 C 305.693 225.170,305.775 225.485,305.876 225.100 C 305.976 224.715,305.976 224.085,305.876 223.700 C 305.775 223.315,305.693 223.630,305.693 224.400 M324.501 227.800 C 324.505 228.680,324.587 228.993,324.683 228.495 C 324.779 227.998,324.775 227.278,324.675 226.895 C 324.575 226.513,324.496 226.920,324.501 227.800 M332.400 243.725 C 332.400 243.794,332.985 244.379,333.700 245.025 L 335.000 246.200 333.825 244.900 C 332.730 243.688,332.400 243.416,332.400 243.725 M337.983 248.900 C 338.964 249.945,339.819 250.800,339.883 250.800 C 340.184 250.800,339.866 250.441,338.100 248.783 L 336.200 247.000 337.983 248.900 M300.000 261.483 C 300.550 261.578,301.225 261.948,301.500 262.305 C 301.775 262.661,302.000 262.775,302.000 262.556 C 302.000 261.825,301.049 261.200,300.020 261.254 L 299.000 261.309 300.000 261.483 M291.200 266.600 C 290.228 267.590,289.523 268.400,289.633 268.400 C 289.743 268.400,290.628 267.590,291.600 266.600 C 292.572 265.610,293.277 264.800,293.167 264.800 C 293.057 264.800,292.172 265.610,291.200 266.600 M39.105 290.283 C 39.602 290.379,40.322 290.375,40.705 290.275 C 41.087 290.175,40.680 290.096,39.800 290.101 C 38.920 290.105,38.607 290.187,39.105 290.283 M46.900 290.676 C 47.285 290.776,47.915 290.776,48.300 290.676 C 48.685 290.575,48.370 290.493,47.600 290.493 C 46.830 290.493,46.515 290.575,46.900 290.676 M55.500 291.082 C 55.995 291.178,56.805 291.178,57.300 291.082 C 57.795 290.987,57.390 290.909,56.400 290.909 C 55.410 290.909,55.005 290.987,55.500 291.082 M64.700 291.482 C 65.195 291.578,66.005 291.578,66.500 291.482 C 66.995 291.387,66.590 291.309,65.600 291.309 C 64.610 291.309,64.205 291.387,64.700 291.482 M73.100 291.882 C 73.595 291.978,74.405 291.978,74.900 291.882 C 75.395 291.787,74.990 291.709,74.000 291.709 C 73.010 291.709,72.605 291.787,73.100 291.882 M81.905 292.283 C 82.402 292.379,83.122 292.375,83.505 292.275 C 83.887 292.175,83.480 292.096,82.600 292.101 C 81.720 292.105,81.407 292.187,81.905 292.283 M90.705 292.683 C 91.202 292.779,91.922 292.775,92.305 292.675 C 92.687 292.575,92.280 292.496,91.400 292.501 C 90.520 292.505,90.207 292.587,90.705 292.683 M99.100 293.082 C 99.595 293.178,100.405 293.178,100.900 293.082 C 101.395 292.987,100.990 292.909,100.000 292.909 C 99.010 292.909,98.605 292.987,99.100 293.082 M108.100 293.476 C 108.485 293.576,109.115 293.576,109.500 293.476 C 109.885 293.375,109.570 293.293,108.800 293.293 C 108.030 293.293,107.715 293.375,108.100 293.476 M116.900 293.876 C 117.285 293.976,117.915 293.976,118.300 293.876 C 118.685 293.775,118.370 293.693,117.600 293.693 C 116.830 293.693,116.515 293.775,116.900 293.876 M125.505 294.283 C 126.002 294.379,126.722 294.375,127.105 294.275 C 127.487 294.175,127.080 294.096,126.200 294.101 C 125.320 294.105,125.007 294.187,125.505 294.283 M134.305 294.683 C 134.802 294.779,135.522 294.775,135.905 294.675 C 136.287 294.575,135.880 294.496,135.000 294.501 C 134.120 294.505,133.807 294.587,134.305 294.683 M143.300 295.076 C 143.685 295.176,144.315 295.176,144.700 295.076 C 145.085 294.975,144.770 294.893,144.000 294.893 C 143.230 294.893,142.915 294.975,143.300 295.076 M151.905 295.483 C 152.402 295.579,153.122 295.575,153.505 295.475 C 153.887 295.375,153.480 295.296,152.600 295.301 C 151.720 295.305,151.407 295.387,151.905 295.483 M160.300 295.882 C 160.795 295.978,161.605 295.978,162.100 295.882 C 162.595 295.787,162.190 295.709,161.200 295.709 C 160.210 295.709,159.805 295.787,160.300 295.882 M169.505 296.283 C 170.002 296.379,170.722 296.375,171.105 296.275 C 171.487 296.175,171.080 296.096,170.200 296.101 C 169.320 296.105,169.007 296.187,169.505 296.283 M178.305 296.683 C 178.802 296.779,179.522 296.775,179.905 296.675 C 180.287 296.575,179.880 296.496,179.000 296.501 C 178.120 296.505,177.807 296.587,178.305 296.683 M187.105 297.083 C 187.602 297.179,188.322 297.175,188.705 297.075 C 189.087 296.975,188.680 296.896,187.800 296.901 C 186.920 296.905,186.607 296.987,187.105 297.083 M195.905 297.483 C 196.402 297.579,197.122 297.575,197.505 297.475 C 197.887 297.375,197.480 297.296,196.600 297.301 C 195.720 297.305,195.407 297.387,195.905 297.483 M204.900 297.876 C 205.285 297.976,205.915 297.976,206.300 297.876 C 206.685 297.775,206.370 297.693,205.600 297.693 C 204.830 297.693,204.515 297.775,204.900 297.876 M212.500 298.287 C 213.105 298.378,214.095 298.378,214.700 298.287 C 215.305 298.195,214.810 298.120,213.600 298.120 C 212.390 298.120,211.895 298.195,212.500 298.287 M221.705 298.687 C 222.314 298.779,223.214 298.777,223.705 298.682 C 224.197 298.587,223.700 298.511,222.600 298.514 C 221.500 298.517,221.097 298.595,221.705 298.687 M230.100 299.087 C 230.705 299.178,231.695 299.178,232.300 299.087 C 232.905 298.995,232.410 298.920,231.200 298.920 C 229.990 298.920,229.495 298.995,230.100 299.087 M238.900 299.487 C 239.505 299.578,240.495 299.578,241.100 299.487 C 241.705 299.395,241.210 299.320,240.000 299.320 C 238.790 299.320,238.295 299.395,238.900 299.487 M247.700 299.887 C 248.305 299.978,249.295 299.978,249.900 299.887 C 250.505 299.795,250.010 299.720,248.800 299.720 C 247.590 299.720,247.095 299.795,247.700 299.887 M256.307 300.290 C 257.026 300.379,258.106 300.377,258.707 300.286 C 259.308 300.195,258.720 300.122,257.400 300.124 C 256.080 300.126,255.588 300.201,256.307 300.290 M265.107 300.690 C 265.826 300.779,266.906 300.777,267.507 300.686 C 268.108 300.595,267.520 300.522,266.200 300.524 C 264.880 300.526,264.388 300.601,265.107 300.690 M273.907 301.090 C 274.626 301.179,275.706 301.177,276.307 301.086 C 276.908 300.995,276.320 300.922,275.000 300.924 C 273.680 300.926,273.188 301.001,273.907 301.090 M282.300 301.489 C 283.015 301.578,284.185 301.578,284.900 301.489 C 285.615 301.401,285.030 301.328,283.600 301.328 C 282.170 301.328,281.585 301.401,282.300 301.489 M291.507 301.890 C 292.226 301.979,293.306 301.977,293.907 301.886 C 294.508 301.795,293.920 301.722,292.600 301.724 C 291.280 301.726,290.788 301.801,291.507 301.890 M300.100 302.287 C 300.705 302.378,301.695 302.378,302.300 302.287 C 302.905 302.195,302.410 302.120,301.200 302.120 C 299.990 302.120,299.495 302.195,300.100 302.287 M309.107 302.690 C 309.826 302.779,310.906 302.777,311.507 302.686 C 312.108 302.595,311.520 302.522,310.200 302.524 C 308.880 302.526,308.388 302.601,309.107 302.690 M317.907 303.090 C 318.626 303.179,319.706 303.177,320.307 303.086 C 320.908 302.995,320.320 302.922,319.000 302.924 C 317.680 302.926,317.188 303.001,317.907 303.090 M325.300 303.491 C 326.125 303.578,327.475 303.578,328.300 303.491 C 329.125 303.405,328.450 303.334,326.800 303.334 C 325.150 303.334,324.475 303.405,325.300 303.491 M334.100 303.891 C 334.925 303.978,336.275 303.978,337.100 303.891 C 337.925 303.805,337.250 303.734,335.600 303.734 C 333.950 303.734,333.275 303.805,334.100 303.891 M342.900 304.291 C 343.725 304.378,345.075 304.378,345.900 304.291 C 346.725 304.205,346.050 304.134,344.400 304.134 C 342.750 304.134,342.075 304.205,342.900 304.291 M351.911 304.693 C 352.851 304.778,354.291 304.777,355.111 304.691 C 355.930 304.605,355.160 304.536,353.400 304.537 C 351.640 304.539,350.970 304.609,351.911 304.693 M362.300 305.089 C 363.015 305.178,364.185 305.178,364.900 305.089 C 365.615 305.001,365.030 304.928,363.600 304.928 C 362.170 304.928,361.585 305.001,362.300 305.089 M377.705 305.087 C 378.314 305.179,379.214 305.177,379.705 305.082 C 380.197 304.987,379.700 304.911,378.600 304.914 C 377.500 304.917,377.097 304.995,377.705 305.087 M369.700 305.487 C 370.305 305.578,371.295 305.578,371.900 305.487 C 372.505 305.395,372.010 305.320,370.800 305.320 C 369.590 305.320,369.095 305.395,369.700 305.487 M9.742 318.600 C 9.741 320.580,9.808 321.440,9.892 320.512 C 9.976 319.584,9.977 317.964,9.895 316.912 C 9.812 315.860,9.743 316.620,9.742 318.600 M388.093 322.000 C 388.093 322.770,388.175 323.085,388.276 322.700 C 388.376 322.315,388.376 321.685,388.276 321.300 C 388.175 320.915,388.093 321.230,388.093 322.000 M14.900 329.076 C 15.285 329.176,15.915 329.176,16.300 329.076 C 16.685 328.975,16.370 328.893,15.600 328.893 C 14.830 328.893,14.515 328.975,14.900 329.076 M49.105 331.883 C 49.602 331.979,50.322 331.975,50.705 331.875 C 51.087 331.775,50.680 331.696,49.800 331.701 C 48.920 331.705,48.607 331.787,49.105 331.883 M65.105 333.483 C 65.602 333.579,66.322 333.575,66.705 333.475 C 67.087 333.375,66.680 333.296,65.800 333.301 C 64.920 333.305,64.607 333.387,65.105 333.483 M69.300 333.876 C 69.685 333.976,70.315 333.976,70.700 333.876 C 71.085 333.775,70.770 333.693,70.000 333.693 C 69.230 333.693,68.915 333.775,69.300 333.876 M73.300 334.276 C 73.685 334.376,74.315 334.376,74.700 334.276 C 75.085 334.175,74.770 334.093,74.000 334.093 C 73.230 334.093,72.915 334.175,73.300 334.276 M77.505 334.683 C 78.002 334.779,78.722 334.775,79.105 334.675 C 79.487 334.575,79.080 334.496,78.200 334.501 C 77.320 334.505,77.007 334.587,77.505 334.683 M81.700 335.076 C 82.085 335.176,82.715 335.176,83.100 335.076 C 83.485 334.975,83.170 334.893,82.400 334.893 C 81.630 334.893,81.315 334.975,81.700 335.076 M89.700 335.876 C 90.085 335.976,90.715 335.976,91.100 335.876 C 91.485 335.775,91.170 335.693,90.400 335.693 C 89.630 335.693,89.315 335.775,89.700 335.876 M93.700 336.276 C 94.085 336.376,94.715 336.376,95.100 336.276 C 95.485 336.175,95.170 336.093,94.400 336.093 C 93.630 336.093,93.315 336.175,93.700 336.276 M97.505 336.683 C 98.002 336.779,98.722 336.775,99.105 336.675 C 99.487 336.575,99.080 336.496,98.200 336.501 C 97.320 336.505,97.007 336.587,97.505 336.683 M101.700 337.076 C 102.085 337.176,102.715 337.176,103.100 337.076 C 103.485 336.975,103.170 336.893,102.400 336.893 C 101.630 336.893,101.315 336.975,101.700 337.076 M105.700 337.476 C 106.085 337.576,106.715 337.576,107.100 337.476 C 107.485 337.375,107.170 337.293,106.400 337.293 C 105.630 337.293,105.315 337.375,105.700 337.476 M109.905 337.883 C 110.402 337.979,111.122 337.975,111.505 337.875 C 111.887 337.775,111.480 337.696,110.600 337.701 C 109.720 337.705,109.407 337.787,109.905 337.883 M113.900 338.282 C 114.395 338.378,115.205 338.378,115.700 338.282 C 116.195 338.187,115.790 338.109,114.800 338.109 C 113.810 338.109,113.405 338.187,113.900 338.282 M117.700 338.676 C 118.085 338.776,118.715 338.776,119.100 338.676 C 119.485 338.575,119.170 338.493,118.400 338.493 C 117.630 338.493,117.315 338.575,117.700 338.676 M121.700 339.076 C 122.085 339.176,122.715 339.176,123.100 339.076 C 123.485 338.975,123.170 338.893,122.400 338.893 C 121.630 338.893,121.315 338.975,121.700 339.076 M130.100 339.876 C 130.485 339.976,131.115 339.976,131.500 339.876 C 131.885 339.775,131.570 339.693,130.800 339.693 C 130.030 339.693,129.715 339.775,130.100 339.876 M134.100 340.276 C 134.485 340.376,135.115 340.376,135.500 340.276 C 135.885 340.175,135.570 340.093,134.800 340.093 C 134.030 340.093,133.715 340.175,134.100 340.276 M138.500 340.676 C 138.885 340.776,139.515 340.776,139.900 340.676 C 140.285 340.575,139.970 340.493,139.200 340.493 C 138.430 340.493,138.115 340.575,138.500 340.676 M162.500 343.076 C 162.885 343.176,163.515 343.176,163.900 343.076 C 164.285 342.975,163.970 342.893,163.200 342.893 C 162.430 342.893,162.115 342.975,162.500 343.076 M264.305 352.683 C 264.802 352.779,265.522 352.775,265.905 352.675 C 266.287 352.575,265.880 352.496,265.000 352.501 C 264.120 352.505,263.807 352.587,264.305 352.683 M272.300 353.082 C 272.795 353.178,273.605 353.178,274.100 353.082 C 274.595 352.987,274.190 352.909,273.200 352.909 C 272.210 352.909,271.805 352.987,272.300 353.082 M282.305 353.483 C 282.802 353.579,283.522 353.575,283.905 353.475 C 284.287 353.375,283.880 353.296,283.000 353.301 C 282.120 353.305,281.807 353.387,282.305 353.483 M291.900 353.889 C 292.615 353.978,293.785 353.978,294.500 353.889 C 295.215 353.801,294.630 353.728,293.200 353.728 C 291.770 353.728,291.185 353.801,291.900 353.889 M303.905 354.283 C 304.402 354.379,305.122 354.375,305.505 354.275 C 305.887 354.175,305.480 354.096,304.600 354.101 C 303.720 354.105,303.407 354.187,303.905 354.283 M312.305 354.683 C 312.802 354.779,313.522 354.775,313.905 354.675 C 314.287 354.575,313.880 354.496,313.000 354.501 C 312.120 354.505,311.807 354.587,312.305 354.683 M319.700 355.076 C 320.085 355.176,320.715 355.176,321.100 355.076 C 321.485 354.975,321.170 354.893,320.400 354.893 C 319.630 354.893,319.315 354.975,319.700 355.076 M356.989 367.700 L 354.200 370.600 357.100 367.811 C 359.794 365.220,360.183 364.800,359.889 364.800 C 359.828 364.800,358.523 366.105,356.989 367.700 M335.178 368.700 L 333.800 370.200 335.300 368.822 C 336.696 367.538,336.984 367.200,336.678 367.200 C 336.612 367.200,335.937 367.875,335.178 368.700 M325.791 377.700 L 322.600 381.000 325.900 377.809 C 328.965 374.846,329.382 374.400,329.091 374.400 C 329.030 374.400,327.545 375.885,325.791 377.700 M344.788 379.500 L 342.200 382.200 344.900 379.612 C 346.385 378.188,347.600 376.973,347.600 376.912 C 347.600 376.617,347.193 376.992,344.788 379.500 M316.400 386.600 C 315.428 387.590,314.723 388.400,314.833 388.400 C 314.943 388.400,315.828 387.590,316.800 386.600 C 317.772 385.610,318.477 384.800,318.367 384.800 C 318.257 384.800,317.372 385.610,316.400 386.600 M336.985 386.900 L 335.000 389.000 337.100 387.015 C 338.255 385.923,339.200 384.978,339.200 384.915 C 339.200 384.617,338.829 384.949,336.985 386.900 M331.381 392.100 L 329.800 393.800 331.500 392.219 C 333.081 390.748,333.384 390.400,333.081 390.400 C 333.016 390.400,332.251 391.165,331.381 392.100 " stroke="none" fill="#9f9f9f" fill-rule="evenodd"></path><path id="path4" d="M253.300 8.676 C 253.685 8.776,254.315 8.776,254.700 8.676 C 255.085 8.575,254.770 8.493,254.000 8.493 C 253.230 8.493,252.915 8.575,253.300 8.676 M201.700 46.276 C 202.085 46.376,202.715 46.376,203.100 46.276 C 203.485 46.175,203.170 46.093,202.400 46.093 C 201.630 46.093,201.315 46.175,201.700 46.276 M155.905 59.883 C 156.402 59.979,157.122 59.975,157.505 59.875 C 157.887 59.775,157.480 59.696,156.600 59.701 C 155.720 59.705,155.407 59.787,155.905 59.883 M142.500 60.297 C 143.985 60.374,146.415 60.374,147.900 60.297 C 149.385 60.220,148.170 60.157,145.200 60.157 C 142.230 60.157,141.015 60.220,142.500 60.297 M106.200 69.600 C 107.283 70.700,108.260 71.600,108.370 71.600 C 108.480 71.600,107.683 70.700,106.600 69.600 C 105.517 68.500,104.540 67.600,104.430 67.600 C 104.320 67.600,105.117 68.500,106.200 69.600 M251.500 68.695 C 252.655 68.776,254.545 68.776,255.700 68.695 C 256.855 68.614,255.910 68.548,253.600 68.548 C 251.290 68.548,250.345 68.614,251.500 68.695 M349.701 71.800 C 349.705 72.680,349.787 72.993,349.883 72.495 C 349.979 71.998,349.975 71.278,349.875 70.895 C 349.775 70.513,349.696 70.920,349.701 71.800 M350.093 78.800 C 350.093 79.570,350.175 79.885,350.276 79.500 C 350.376 79.115,350.376 78.485,350.276 78.100 C 350.175 77.715,350.093 78.030,350.093 78.800 M348.120 106.400 C 348.120 107.610,348.195 108.105,348.287 107.500 C 348.378 106.895,348.378 105.905,348.287 105.300 C 348.195 104.695,348.120 105.190,348.120 106.400 M183.693 122.400 C 183.693 123.170,183.775 123.485,183.876 123.100 C 183.976 122.715,183.976 122.085,183.876 121.700 C 183.775 121.315,183.693 121.630,183.693 122.400 M350.101 124.200 C 350.105 125.080,350.187 125.393,350.283 124.895 C 350.379 124.398,350.375 123.678,350.275 123.295 C 350.175 122.913,350.096 123.320,350.101 124.200 M350.109 134.000 C 350.109 134.990,350.187 135.395,350.282 134.900 C 350.378 134.405,350.378 133.595,350.282 133.100 C 350.187 132.605,350.109 133.010,350.109 134.000 M254.114 134.600 C 254.117 135.700,254.195 136.103,254.287 135.495 C 254.379 134.886,254.377 133.986,254.282 133.495 C 254.187 133.003,254.111 133.500,254.114 134.600 M210.493 145.200 C 210.493 145.970,210.575 146.285,210.676 145.900 C 210.776 145.515,210.776 144.885,210.676 144.500 C 210.575 144.115,210.493 144.430,210.493 145.200 M272.400 152.525 C 272.400 152.594,272.985 153.179,273.700 153.825 L 275.000 155.000 273.825 153.700 C 272.730 152.488,272.400 152.216,272.400 152.525 M342.901 169.800 C 342.905 170.680,342.987 170.993,343.083 170.495 C 343.179 169.998,343.175 169.278,343.075 168.895 C 342.975 168.513,342.896 168.920,342.901 169.800 M341.200 252.125 C 341.200 252.194,341.785 252.779,342.500 253.425 L 343.800 254.600 342.625 253.300 C 341.530 252.088,341.200 251.816,341.200 252.125 M290.585 266.900 L 288.600 269.000 290.700 267.015 C 292.651 265.171,292.983 264.800,292.685 264.800 C 292.622 264.800,291.677 265.745,290.585 266.900 M307.978 266.300 L 306.600 267.800 308.100 266.422 C 309.496 265.138,309.784 264.800,309.478 264.800 C 309.412 264.800,308.737 265.475,307.978 266.300 M42.900 290.687 C 43.505 290.778,44.495 290.778,45.100 290.687 C 45.705 290.595,45.210 290.520,44.000 290.520 C 42.790 290.520,42.295 290.595,42.900 290.687 M52.105 291.087 C 52.714 291.179,53.614 291.177,54.105 291.082 C 54.597 290.987,54.100 290.911,53.000 290.914 C 51.900 290.917,51.497 290.995,52.105 291.087 M60.300 291.482 C 60.795 291.578,61.605 291.578,62.100 291.482 C 62.595 291.387,62.190 291.309,61.200 291.309 C 60.210 291.309,59.805 291.387,60.300 291.482 M68.900 291.887 C 69.505 291.978,70.495 291.978,71.100 291.887 C 71.705 291.795,71.210 291.720,70.000 291.720 C 68.790 291.720,68.295 291.795,68.900 291.887 M77.700 292.287 C 78.305 292.378,79.295 292.378,79.900 292.287 C 80.505 292.195,80.010 292.120,78.800 292.120 C 77.590 292.120,77.095 292.195,77.700 292.287 M86.500 292.687 C 87.105 292.778,88.095 292.778,88.700 292.687 C 89.305 292.595,88.810 292.520,87.600 292.520 C 86.390 292.520,85.895 292.595,86.500 292.687 M93.700 293.091 C 94.525 293.178,95.875 293.178,96.700 293.091 C 97.525 293.005,96.850 292.934,95.200 292.934 C 93.550 292.934,92.875 293.005,93.700 293.091 M103.305 293.487 C 103.914 293.579,104.814 293.577,105.305 293.482 C 105.797 293.387,105.300 293.311,104.200 293.314 C 103.100 293.317,102.697 293.395,103.305 293.487 M111.705 293.887 C 112.314 293.979,113.214 293.977,113.705 293.882 C 114.197 293.787,113.700 293.711,112.600 293.714 C 111.500 293.717,111.097 293.795,111.705 293.887 M10.124 296.200 C 10.126 297.520,10.201 298.012,10.290 297.293 C 10.379 296.574,10.377 295.494,10.286 294.893 C 10.195 294.292,10.122 294.880,10.124 296.200 M120.700 294.282 C 121.195 294.378,122.005 294.378,122.500 294.282 C 122.995 294.187,122.590 294.109,121.600 294.109 C 120.610 294.109,120.205 294.187,120.700 294.282 M129.500 294.682 C 129.995 294.778,130.805 294.778,131.300 294.682 C 131.795 294.587,131.390 294.509,130.400 294.509 C 129.410 294.509,129.005 294.587,129.500 294.682 M138.100 295.087 C 138.705 295.178,139.695 295.178,140.300 295.087 C 140.905 294.995,140.410 294.920,139.200 294.920 C 137.990 294.920,137.495 294.995,138.100 295.087 M147.100 295.482 C 147.595 295.578,148.405 295.578,148.900 295.482 C 149.395 295.387,148.990 295.309,148.000 295.309 C 147.010 295.309,146.605 295.387,147.100 295.482 M154.700 295.889 C 155.415 295.978,156.585 295.978,157.300 295.889 C 158.015 295.801,157.430 295.728,156.000 295.728 C 154.570 295.728,153.985 295.801,154.700 295.889 M163.907 296.290 C 164.626 296.379,165.706 296.377,166.307 296.286 C 166.908 296.195,166.320 296.122,165.000 296.124 C 163.680 296.126,163.188 296.201,163.907 296.290 M172.300 296.689 C 173.015 296.778,174.185 296.778,174.900 296.689 C 175.615 296.601,175.030 296.528,173.600 296.528 C 172.170 296.528,171.585 296.601,172.300 296.689 M181.100 297.089 C 181.815 297.178,182.985 297.178,183.700 297.089 C 184.415 297.001,183.830 296.928,182.400 296.928 C 180.970 296.928,180.385 297.001,181.100 297.089 M190.307 297.490 C 191.026 297.579,192.106 297.577,192.707 297.486 C 193.308 297.395,192.720 297.322,191.400 297.324 C 190.080 297.326,189.588 297.401,190.307 297.490 M199.107 297.890 C 199.826 297.979,200.906 297.977,201.507 297.886 C 202.108 297.795,201.520 297.722,200.200 297.724 C 198.880 297.726,198.388 297.801,199.107 297.890 M207.507 298.290 C 208.226 298.379,209.306 298.377,209.907 298.286 C 210.508 298.195,209.920 298.122,208.600 298.124 C 207.280 298.126,206.788 298.201,207.507 298.290 M215.900 298.689 C 216.615 298.778,217.785 298.778,218.500 298.689 C 219.215 298.601,218.630 298.528,217.200 298.528 C 215.770 298.528,215.185 298.601,215.900 298.689 M224.700 299.089 C 225.415 299.178,226.585 299.178,227.300 299.089 C 228.015 299.001,227.430 298.928,226.000 298.928 C 224.570 298.928,223.985 299.001,224.700 299.089 M233.907 299.490 C 234.626 299.579,235.706 299.577,236.307 299.486 C 236.908 299.395,236.320 299.322,235.000 299.324 C 233.680 299.326,233.188 299.401,233.907 299.490 M242.707 299.890 C 243.426 299.979,244.506 299.977,245.107 299.886 C 245.708 299.795,245.120 299.722,243.800 299.724 C 242.480 299.726,241.988 299.801,242.707 299.890 M251.100 300.289 C 251.815 300.378,252.985 300.378,253.700 300.289 C 254.415 300.201,253.830 300.128,252.400 300.128 C 250.970 300.128,250.385 300.201,251.100 300.289 M258.707 300.690 C 259.426 300.779,260.506 300.777,261.107 300.686 C 261.708 300.595,261.120 300.522,259.800 300.524 C 258.480 300.526,257.988 300.601,258.707 300.690 M267.300 301.087 C 267.905 301.178,268.895 301.178,269.500 301.087 C 270.105 300.995,269.610 300.920,268.400 300.920 C 267.190 300.920,266.695 300.995,267.300 301.087 M276.500 301.487 C 277.105 301.578,278.095 301.578,278.700 301.487 C 279.305 301.395,278.810 301.320,277.600 301.320 C 276.390 301.320,275.895 301.395,276.500 301.487 M285.107 301.890 C 285.826 301.979,286.906 301.977,287.507 301.886 C 288.108 301.795,287.520 301.722,286.200 301.724 C 284.880 301.726,284.388 301.801,285.107 301.890 M293.907 302.290 C 294.626 302.379,295.706 302.377,296.307 302.286 C 296.908 302.195,296.320 302.122,295.000 302.124 C 293.680 302.126,293.188 302.201,293.907 302.290 M302.500 302.687 C 303.105 302.778,304.095 302.778,304.700 302.687 C 305.305 302.595,304.810 302.520,303.600 302.520 C 302.390 302.520,301.895 302.595,302.500 302.687 M311.300 303.087 C 311.905 303.178,312.895 303.178,313.500 303.087 C 314.105 302.995,313.610 302.920,312.400 302.920 C 311.190 302.920,310.695 302.995,311.300 303.087 M320.100 303.487 C 320.705 303.578,321.695 303.578,322.300 303.487 C 322.905 303.395,322.410 303.320,321.200 303.320 C 319.990 303.320,319.495 303.395,320.100 303.487 M328.900 303.887 C 329.505 303.978,330.495 303.978,331.100 303.887 C 331.705 303.795,331.210 303.720,330.000 303.720 C 328.790 303.720,328.295 303.795,328.900 303.887 M337.700 304.287 C 338.305 304.378,339.295 304.378,339.900 304.287 C 340.505 304.195,340.010 304.120,338.800 304.120 C 337.590 304.120,337.095 304.195,337.700 304.287 M346.500 304.687 C 347.105 304.778,348.095 304.778,348.700 304.687 C 349.305 304.595,348.810 304.520,347.600 304.520 C 346.390 304.520,345.895 304.595,346.500 304.687 M355.507 305.090 C 356.226 305.179,357.306 305.177,357.907 305.086 C 358.508 304.995,357.920 304.922,356.600 304.924 C 355.280 304.926,354.788 305.001,355.507 305.090 M365.300 305.487 C 365.905 305.578,366.895 305.578,367.500 305.487 C 368.105 305.395,367.610 305.320,366.400 305.320 C 365.190 305.320,364.695 305.395,365.300 305.487 M375.715 305.496 C 376.988 305.576,378.968 305.575,380.115 305.494 C 381.262 305.414,380.220 305.349,377.800 305.350 C 375.380 305.351,374.442 305.416,375.715 305.496 M387.314 313.400 C 387.317 314.500,387.395 314.903,387.487 314.295 C 387.579 313.686,387.577 312.786,387.482 312.295 C 387.387 311.803,387.311 312.300,387.314 313.400 M387.693 318.800 C 387.693 319.570,387.775 319.885,387.876 319.500 C 387.976 319.115,387.976 318.485,387.876 318.100 C 387.775 317.715,387.693 318.030,387.693 318.800 M9.720 324.400 C 9.720 325.610,9.795 326.105,9.887 325.500 C 9.978 324.895,9.978 323.905,9.887 323.300 C 9.795 322.695,9.720 323.190,9.720 324.400 M388.109 324.800 C 388.109 325.790,388.187 326.195,388.282 325.700 C 388.378 325.205,388.378 324.395,388.282 323.900 C 388.187 323.405,388.109 323.810,388.109 324.800 M18.912 329.095 C 19.964 329.177,21.584 329.176,22.512 329.092 C 23.440 329.008,22.580 328.941,20.600 328.942 C 18.620 328.943,17.860 329.012,18.912 329.095 M388.501 331.000 C 388.505 331.880,388.587 332.193,388.683 331.695 C 388.779 331.198,388.775 330.478,388.675 330.095 C 388.575 329.713,388.496 330.120,388.501 331.000 M389.293 342.800 C 389.293 343.570,389.375 343.885,389.476 343.500 C 389.576 343.115,389.576 342.485,389.476 342.100 C 389.375 341.715,389.293 342.030,389.293 342.800 M177.300 344.276 C 177.685 344.376,178.315 344.376,178.700 344.276 C 179.085 344.175,178.770 344.093,178.000 344.093 C 177.230 344.093,176.915 344.175,177.300 344.276 M181.300 344.676 C 181.685 344.776,182.315 344.776,182.700 344.676 C 183.085 344.575,182.770 344.493,182.000 344.493 C 181.230 344.493,180.915 344.575,181.300 344.676 M197.300 346.276 C 197.685 346.376,198.315 346.376,198.700 346.276 C 199.085 346.175,198.770 346.093,198.000 346.093 C 197.230 346.093,196.915 346.175,197.300 346.276 M205.300 347.076 C 205.685 347.176,206.315 347.176,206.700 347.076 C 207.085 346.975,206.770 346.893,206.000 346.893 C 205.230 346.893,204.915 346.975,205.300 347.076 M209.700 347.476 C 210.085 347.576,210.715 347.576,211.100 347.476 C 211.485 347.375,211.170 347.293,210.400 347.293 C 209.630 347.293,209.315 347.375,209.700 347.476 M389.693 348.400 C 389.693 349.170,389.775 349.485,389.876 349.100 C 389.976 348.715,389.976 348.085,389.876 347.700 C 389.775 347.315,389.693 347.630,389.693 348.400 M213.700 347.876 C 214.085 347.976,214.715 347.976,215.100 347.876 C 215.485 347.775,215.170 347.693,214.400 347.693 C 213.630 347.693,213.315 347.775,213.700 347.876 M230.307 349.490 C 231.026 349.579,232.106 349.577,232.707 349.486 C 233.308 349.395,232.720 349.322,231.400 349.324 C 230.080 349.326,229.588 349.401,230.307 349.490 M267.500 352.682 C 267.995 352.778,268.805 352.778,269.300 352.682 C 269.795 352.587,269.390 352.509,268.400 352.509 C 267.410 352.509,267.005 352.587,267.500 352.682 M275.907 353.090 C 276.626 353.179,277.706 353.177,278.307 353.086 C 278.908 352.995,278.320 352.922,277.000 352.924 C 275.680 352.926,275.188 353.001,275.907 353.090 M286.300 353.489 C 287.015 353.578,288.185 353.578,288.900 353.489 C 289.615 353.401,289.030 353.328,287.600 353.328 C 286.170 353.328,285.585 353.401,286.300 353.489 M296.705 353.883 C 297.202 353.979,297.922 353.975,298.305 353.875 C 298.687 353.775,298.280 353.696,297.400 353.701 C 296.520 353.705,296.207 353.787,296.705 353.883 M306.900 354.276 C 307.285 354.376,307.915 354.376,308.300 354.276 C 308.685 354.175,308.370 354.093,307.600 354.093 C 306.830 354.093,306.515 354.175,306.900 354.276 M337.905 356.283 C 338.402 356.379,339.122 356.375,339.505 356.275 C 339.887 356.175,339.480 356.096,338.600 356.101 C 337.720 356.105,337.407 356.187,337.905 356.283 M336.985 367.300 L 335.000 369.400 337.100 367.415 C 339.051 365.571,339.383 365.200,339.085 365.200 C 339.022 365.200,338.077 366.145,336.985 367.300 M351.178 373.100 L 349.800 374.600 351.300 373.222 C 352.125 372.463,352.800 371.788,352.800 371.722 C 352.800 371.416,352.462 371.704,351.178 373.100 M328.191 375.700 L 325.000 379.000 328.300 375.809 C 331.365 372.846,331.782 372.400,331.491 372.400 C 331.430 372.400,329.945 373.885,328.191 375.700 M342.985 380.900 L 341.000 383.000 343.100 381.015 C 345.051 379.171,345.383 378.800,345.085 378.800 C 345.022 378.800,344.077 379.745,342.985 380.900 M319.588 383.900 L 317.000 386.600 319.700 384.012 C 321.185 382.588,322.400 381.373,322.400 381.312 C 322.400 381.017,321.993 381.392,319.588 383.900 M335.781 387.700 L 334.200 389.400 335.900 387.819 C 337.481 386.348,337.784 386.000,337.481 386.000 C 337.416 386.000,336.651 386.765,335.781 387.700 M329.375 393.700 L 328.200 395.000 329.500 393.825 C 330.712 392.730,330.984 392.400,330.675 392.400 C 330.606 392.400,330.021 392.985,329.375 393.700 M268.900 396.676 C 269.285 396.776,269.915 396.776,270.300 396.676 C 270.685 396.575,270.370 396.493,269.600 396.493 C 268.830 396.493,268.515 396.575,268.900 396.676 " stroke="none" fill="#747474" fill-rule="evenodd"></path></g></svg>