<svg id="svg" version="1.1" xmlns="http://www.w3.org/2000/svg" xmlns:xlink="http://www.w3.org/1999/xlink" width="400" height="400" viewBox="0, 0, 400,400"><g id="svgg"><path id="path0" d="M0.000 200.000 L 0.000 400.000 200.000 400.000 L 400.000 400.000 400.000 200.000 L 400.000 0.000 200.000 0.000 L 0.000 0.000 0.000 200.000 M149.679 24.719 C 150.028 25.068,150.285 25.061,150.732 24.690 C 151.754 23.843,156.294 24.161,157.352 25.155 C 157.847 25.620,158.634 26.000,159.102 26.000 C 159.570 26.000,160.064 26.180,160.200 26.400 C 160.336 26.620,160.798 26.800,161.227 26.800 C 162.191 26.800,164.400 28.850,164.400 29.743 C 164.400 30.177,164.739 30.400,165.400 30.400 C 166.591 30.400,169.600 33.305,169.600 34.454 C 169.600 34.870,170.183 35.732,170.895 36.369 C 172.120 37.463,172.199 37.702,172.337 40.738 C 172.451 43.261,172.645 44.098,173.241 44.637 C 174.066 45.384,174.371 49.600,173.600 49.600 C 173.380 49.600,173.200 49.870,173.200 50.200 C 173.200 50.530,173.335 50.801,173.500 50.803 C 174.360 50.812,175.148 54.138,174.400 54.600 C 174.180 54.736,174.000 55.255,174.000 55.754 C 174.000 56.253,173.550 57.083,173.000 57.600 C 172.427 58.138,172.000 58.987,172.000 59.586 C 172.000 60.627,169.630 63.600,168.801 63.600 C 168.580 63.600,168.400 63.872,168.400 64.205 C 168.400 65.999,166.185 68.400,164.530 68.400 C 163.799 68.400,163.200 68.580,163.200 68.800 C 163.200 69.020,162.840 69.200,162.400 69.200 C 161.956 69.200,161.600 69.467,161.600 69.800 C 161.600 70.130,161.780 70.400,162.000 70.400 C 162.220 70.400,162.400 70.839,162.400 71.376 C 162.400 71.913,162.580 72.464,162.800 72.600 C 163.020 72.736,163.200 73.176,163.200 73.578 C 163.200 73.980,163.469 74.824,163.798 75.454 C 164.126 76.084,164.396 77.000,164.398 77.488 C 164.399 77.976,164.760 79.017,165.200 79.800 C 165.640 80.583,166.000 81.564,166.000 81.979 C 166.000 82.394,166.135 82.793,166.300 82.867 C 166.772 83.076,168.325 86.464,168.608 87.900 C 168.748 88.615,169.029 89.200,169.232 89.200 C 169.434 89.200,169.600 89.740,169.600 90.400 C 169.600 91.060,169.780 91.600,170.000 91.600 C 170.220 91.600,170.400 91.842,170.400 92.138 C 170.400 92.434,170.763 93.004,171.206 93.405 C 171.649 93.807,172.122 94.825,172.257 95.667 C 172.392 96.510,172.659 97.200,172.851 97.200 C 173.043 97.200,173.200 97.819,173.200 98.576 C 173.200 99.333,173.380 100.064,173.600 100.200 C 173.820 100.336,174.000 100.887,174.000 101.424 C 174.000 101.961,174.180 102.400,174.400 102.400 C 174.620 102.400,174.800 102.755,174.800 103.188 C 174.800 103.621,175.153 104.604,175.584 105.372 C 176.015 106.139,176.489 107.679,176.637 108.793 C 176.785 109.907,177.062 110.915,177.253 111.033 C 177.444 111.151,177.600 111.676,177.600 112.200 C 177.600 112.724,177.780 113.264,178.000 113.400 C 178.220 113.536,178.400 114.087,178.400 114.624 C 178.400 115.161,178.580 115.600,178.800 115.600 C 179.020 115.600,179.200 116.219,179.200 116.976 C 179.200 117.733,179.370 118.458,179.577 118.586 C 179.784 118.714,180.075 119.627,180.223 120.614 C 180.371 121.602,180.652 122.508,180.846 122.629 C 181.041 122.749,181.200 123.161,181.200 123.544 C 181.200 124.419,182.099 126.393,182.500 126.397 C 182.665 126.399,182.800 126.732,182.800 127.139 C 182.800 129.647,185.124 130.972,185.187 128.500 C 185.194 128.225,185.380 128.000,185.600 128.000 C 185.820 128.000,186.000 127.671,186.000 127.268 C 186.000 126.865,186.405 125.731,186.900 124.748 C 187.395 123.764,188.059 122.294,188.375 121.480 C 188.691 120.666,189.096 120.000,189.275 120.000 C 189.454 120.000,189.600 119.640,189.600 119.200 C 189.600 118.760,189.735 118.399,189.900 118.397 C 190.295 118.393,191.200 116.424,191.200 115.569 C 191.200 115.200,191.470 114.674,191.800 114.400 C 192.130 114.126,192.400 113.698,192.400 113.448 C 192.400 112.952,194.569 110.897,195.933 110.100 C 196.404 109.825,197.512 109.600,198.395 109.600 C 199.278 109.600,200.000 109.420,200.000 109.200 C 200.000 108.967,201.325 108.800,203.176 108.800 C 204.923 108.800,206.464 108.980,206.600 109.200 C 206.736 109.420,207.630 109.600,208.586 109.600 C 212.343 109.600,217.600 113.821,217.600 116.838 C 217.600 117.231,217.780 117.664,218.000 117.800 C 218.220 117.936,218.400 118.566,218.400 119.200 C 218.400 119.834,218.580 120.464,218.800 120.600 C 219.029 120.741,219.200 122.796,219.200 125.400 C 219.200 128.004,219.029 130.059,218.800 130.200 C 218.580 130.336,218.400 131.367,218.400 132.492 C 218.400 134.750,216.241 140.000,215.312 140.000 C 215.030 140.000,214.800 140.255,214.800 140.567 C 214.800 140.878,214.575 141.224,214.300 141.335 C 214.025 141.446,214.295 141.551,214.900 141.568 C 215.505 141.586,216.000 141.420,216.000 141.200 C 216.000 140.980,216.799 140.800,217.776 140.800 C 218.753 140.800,219.651 140.640,219.772 140.445 C 219.893 140.250,220.598 139.977,221.341 139.838 C 222.083 139.698,223.013 139.228,223.407 138.792 C 223.801 138.356,224.329 138.000,224.579 138.000 C 224.829 138.000,225.828 137.190,226.800 136.200 C 227.772 135.210,228.799 134.400,229.083 134.400 C 229.367 134.400,229.600 134.126,229.600 133.790 C 229.600 133.455,230.005 133.025,230.500 132.836 C 230.995 132.647,231.743 132.111,232.162 131.646 C 232.581 131.181,233.078 130.800,233.266 130.800 C 233.454 130.800,234.185 130.248,234.892 129.572 C 235.598 128.897,236.643 128.251,237.214 128.137 C 238.371 127.906,239.622 126.341,238.854 126.085 C 238.605 126.002,238.400 125.264,238.400 124.446 C 238.400 122.931,237.643 120.809,237.100 120.803 C 236.935 120.801,236.794 119.765,236.786 118.500 C 236.778 117.235,236.514 115.750,236.200 115.200 C 235.453 113.893,235.454 111.690,236.202 110.254 C 236.531 109.624,236.805 108.634,236.811 108.054 C 236.818 107.338,237.236 106.694,238.111 106.046 C 239.325 105.147,239.392 104.967,239.263 102.946 C 239.185 101.724,239.294 100.800,239.516 100.800 C 239.731 100.800,240.004 100.427,240.124 99.970 C 240.243 99.514,240.714 99.043,241.170 98.924 C 241.627 98.804,242.000 98.559,242.000 98.377 C 242.000 98.196,242.657 97.992,243.459 97.924 C 244.401 97.844,245.075 97.522,245.359 97.017 C 246.506 94.978,250.400 93.298,250.400 94.842 C 250.400 95.086,250.922 94.726,251.560 94.042 C 252.199 93.359,253.088 92.800,253.537 92.800 C 253.986 92.800,254.474 92.604,254.622 92.365 C 254.815 92.052,255.012 92.052,255.325 92.365 C 255.968 93.008,258.623 92.895,259.200 92.200 C 259.884 91.376,263.428 91.376,263.745 92.200 C 263.871 92.530,264.341 92.800,264.787 92.800 C 265.234 92.800,265.600 93.016,265.600 93.280 C 265.600 93.653,265.707 93.653,266.080 93.280 C 266.659 92.701,269.200 92.636,269.200 93.200 C 269.200 93.420,269.436 93.600,269.725 93.600 C 270.014 93.600,270.747 94.119,271.354 94.752 C 271.990 95.415,273.056 96.002,273.865 96.133 C 275.599 96.414,276.400 97.043,276.400 98.123 C 276.400 99.046,277.868 100.800,278.640 100.800 C 279.197 100.800,280.400 102.964,280.400 103.965 C 280.400 104.319,281.026 105.146,281.791 105.804 C 282.557 106.462,283.187 107.315,283.191 107.700 C 283.196 108.085,283.380 108.400,283.600 108.400 C 284.124 108.400,284.119 110.921,283.594 111.446 C 283.319 111.721,283.388 112.255,283.809 113.097 C 284.429 114.341,284.272 116.400,283.557 116.400 C 283.360 116.400,283.200 117.390,283.200 118.600 C 283.200 119.810,283.020 120.800,282.800 120.800 C 282.580 120.800,282.400 121.430,282.400 122.200 C 282.400 122.970,282.580 123.600,282.800 123.600 C 283.020 123.600,283.200 123.960,283.200 124.400 C 283.200 124.840,283.062 125.200,282.894 125.200 C 282.726 125.200,282.277 125.920,281.896 126.800 C 281.514 127.680,280.972 128.400,280.690 128.400 C 280.178 128.400,278.800 129.770,278.800 130.279 C 278.800 130.779,277.065 132.400,276.530 132.400 C 276.239 132.400,276.000 132.633,276.000 132.919 C 276.000 133.980,272.984 136.421,271.369 136.667 C 270.506 136.798,269.440 137.197,269.000 137.553 C 267.743 138.570,266.475 139.200,265.685 139.200 C 265.286 139.200,264.744 139.416,264.480 139.680 C 264.107 140.053,264.000 140.053,264.000 139.680 C 264.000 139.096,261.355 139.026,261.000 139.600 C 260.381 140.601,256.365 140.048,255.200 138.800 C 254.314 137.852,253.742 137.600,252.473 137.600 C 251.589 137.600,250.807 137.435,250.733 137.233 C 250.466 136.500,247.600 136.246,247.600 136.955 C 247.600 137.310,247.312 137.600,246.960 137.600 C 246.609 137.600,245.817 138.140,245.200 138.800 C 244.583 139.460,243.961 140.000,243.818 140.000 C 243.197 140.000,240.086 141.615,239.616 142.180 C 239.334 142.521,238.882 142.800,238.613 142.800 C 238.344 142.800,237.798 143.160,237.400 143.600 C 237.002 144.040,236.428 144.400,236.125 144.400 C 235.823 144.400,235.471 144.670,235.345 145.000 C 235.218 145.330,234.846 145.600,234.518 145.600 C 234.189 145.600,233.440 146.115,232.852 146.744 C 232.265 147.373,231.383 148.015,230.892 148.171 C 230.401 148.327,230.000 148.622,230.000 148.827 C 230.000 149.032,229.769 149.200,229.487 149.200 C 228.336 149.200,224.181 153.968,224.690 154.706 C 225.150 155.375,226.928 158.951,227.619 160.600 C 227.804 161.040,228.019 166.857,228.097 173.527 C 228.203 182.627,228.363 185.730,228.735 185.960 C 229.069 186.166,229.208 187.218,229.159 189.157 C 229.116 190.886,229.270 192.230,229.543 192.503 C 229.794 192.754,230.000 193.374,230.000 193.880 C 230.000 194.386,230.180 194.800,230.400 194.800 C 230.620 194.800,230.800 195.160,230.800 195.600 C 230.800 196.040,230.980 196.400,231.200 196.400 C 231.420 196.400,231.600 196.839,231.600 197.376 C 231.600 197.913,231.756 198.449,231.947 198.568 C 232.139 198.686,232.411 199.506,232.552 200.391 C 232.694 201.276,232.987 202.000,233.205 202.000 C 233.422 202.000,233.600 202.439,233.600 202.976 C 233.600 203.513,233.780 204.064,234.000 204.200 C 234.220 204.336,234.400 204.914,234.400 205.485 L 234.400 206.522 235.147 205.661 C 235.558 205.188,236.167 204.800,236.501 204.800 C 236.835 204.800,237.624 204.531,238.254 204.202 C 238.884 203.874,239.805 203.604,240.300 203.602 C 240.795 203.601,241.200 203.420,241.200 203.200 C 241.200 202.980,241.740 202.800,242.400 202.800 C 243.060 202.800,243.600 202.620,243.600 202.400 C 243.600 202.180,244.395 202.000,245.367 202.000 C 246.338 202.000,247.202 201.795,247.285 201.546 C 247.444 201.068,249.102 201.794,249.694 202.600 C 249.876 202.848,249.990 202.810,249.994 202.500 C 249.997 202.225,250.439 202.000,250.976 202.000 C 251.513 202.000,252.064 201.820,252.200 201.600 C 252.336 201.380,252.876 201.200,253.400 201.200 C 253.924 201.200,254.451 201.041,254.571 200.848 C 254.690 200.654,256.140 200.368,257.792 200.214 C 259.443 200.059,260.896 199.767,261.021 199.566 C 261.145 199.365,261.766 199.200,262.400 199.200 C 263.034 199.200,263.664 199.020,263.800 198.800 C 263.936 198.580,265.106 198.400,266.400 198.400 C 267.694 198.400,268.864 198.220,269.000 198.000 C 269.136 197.780,270.666 197.600,272.400 197.600 C 274.134 197.600,275.664 197.780,275.800 198.000 C 275.936 198.220,276.405 198.400,276.843 198.400 C 277.639 198.400,282.534 203.050,283.500 204.723 C 284.851 207.064,283.668 215.948,281.900 216.733 C 281.735 216.807,281.600 217.130,281.600 217.452 C 281.600 217.773,281.150 218.486,280.600 219.036 C 280.050 219.586,279.600 220.226,279.600 220.458 C 279.600 220.689,279.105 221.362,278.500 221.952 C 277.243 223.178,276.734 223.937,275.627 226.235 C 275.194 227.134,274.561 228.101,274.220 228.384 C 273.879 228.666,273.600 229.146,273.600 229.449 C 273.600 229.752,273.432 230.000,273.227 230.000 C 273.022 230.000,272.744 230.346,272.610 230.770 C 272.475 231.193,271.653 232.273,270.783 233.170 C 269.912 234.067,269.200 234.945,269.200 235.121 C 269.200 235.297,268.394 236.242,267.408 237.220 C 266.422 238.199,265.608 239.180,265.599 239.400 C 265.589 239.620,263.966 241.420,261.993 243.400 C 260.019 245.380,258.403 247.186,258.402 247.414 C 258.401 247.641,257.410 248.805,256.200 250.000 C 254.990 251.195,253.998 252.359,253.996 252.586 C 253.993 252.814,253.363 253.610,252.596 254.356 C 251.828 255.102,251.200 255.885,251.200 256.096 C 251.200 256.307,250.660 256.983,250.000 257.600 C 249.340 258.217,248.800 258.897,248.800 259.112 C 248.800 259.326,248.530 259.726,248.200 260.000 C 247.522 260.563,247.394 262.225,248.000 262.600 C 248.838 263.118,247.944 266.693,246.800 267.400 C 246.264 267.731,245.200 270.033,245.200 270.861 C 245.200 271.268,245.043 271.600,244.852 271.600 C 244.660 271.600,244.381 272.680,244.232 274.000 C 244.082 275.320,243.789 276.400,243.580 276.400 C 243.371 276.400,243.200 276.839,243.200 277.376 C 243.200 277.913,243.020 278.464,242.800 278.600 C 242.580 278.736,242.400 279.287,242.400 279.824 C 242.400 280.361,242.220 280.800,242.000 280.800 C 241.780 280.800,241.600 281.599,241.600 282.576 C 241.600 283.553,241.443 284.450,241.252 284.568 C 241.060 284.686,240.815 285.705,240.707 286.831 C 240.229 291.804,234.541 294.141,230.702 290.943 C 229.684 290.094,228.834 289.130,228.813 288.800 C 228.792 288.470,228.510 287.851,228.187 287.424 C 227.864 286.996,227.600 286.242,227.600 285.747 C 227.600 285.252,227.420 284.736,227.200 284.600 C 226.692 284.286,226.661 274.000,227.168 274.000 C 227.371 274.000,227.649 273.489,227.786 272.864 C 227.923 272.239,228.748 271.032,229.618 270.183 C 231.289 268.551,231.840 266.400,230.587 266.400 C 230.251 266.400,229.859 266.085,229.717 265.700 C 229.576 265.315,229.041 264.604,228.530 264.119 C 228.018 263.635,227.600 262.880,227.600 262.443 C 227.600 262.005,227.420 261.536,227.200 261.400 C 226.980 261.264,226.800 259.633,226.800 257.776 C 226.800 255.792,226.965 254.400,227.200 254.400 C 227.420 254.400,227.600 253.961,227.600 253.424 C 227.600 252.887,227.791 252.329,228.025 252.185 C 228.258 252.040,228.614 251.490,228.815 250.961 C 229.067 250.297,229.492 250.000,230.190 250.000 C 230.746 250.000,231.200 249.820,231.200 249.600 C 231.200 249.367,232.525 249.200,234.376 249.200 C 236.123 249.200,237.664 249.020,237.800 248.800 C 237.936 248.580,238.937 248.400,240.024 248.400 C 241.514 248.400,242.000 248.252,242.000 247.800 C 242.000 247.470,242.180 247.200,242.400 247.200 C 242.620 247.200,242.800 246.840,242.800 246.400 C 242.800 245.960,242.937 245.600,243.105 245.600 C 243.422 245.600,243.616 245.278,245.080 242.313 C 245.564 241.333,246.239 240.299,246.580 240.016 C 246.921 239.734,247.200 239.254,247.200 238.951 C 247.200 238.648,247.380 238.400,247.600 238.400 C 247.820 238.400,248.000 238.034,248.000 237.587 C 248.000 237.141,248.270 236.671,248.600 236.545 C 248.930 236.418,249.200 235.974,249.200 235.557 C 249.200 235.141,249.335 234.799,249.500 234.797 C 249.841 234.793,250.870 232.737,250.643 232.510 C 250.562 232.429,250.249 232.602,249.948 232.896 C 249.646 233.190,248.750 233.735,247.955 234.108 C 247.160 234.480,246.295 235.044,246.032 235.361 C 245.769 235.678,244.844 236.057,243.977 236.204 C 243.110 236.350,242.399 236.589,242.397 236.735 C 242.392 237.108,240.380 238.000,239.544 238.000 C 239.161 238.000,238.736 238.180,238.600 238.400 C 238.464 238.620,237.283 238.800,235.976 238.800 C 234.659 238.800,233.600 238.978,233.600 239.200 C 233.600 239.420,233.251 239.600,232.824 239.600 C 232.397 239.600,231.949 239.760,231.828 239.955 C 231.707 240.150,230.932 240.431,230.104 240.579 C 228.294 240.904,226.400 241.681,226.400 242.098 C 226.400 242.264,226.040 242.400,225.600 242.400 C 224.841 242.400,224.800 242.667,224.800 247.600 C 224.800 250.800,224.954 252.800,225.200 252.800 C 225.448 252.800,225.600 254.992,225.600 258.576 C 225.600 261.996,225.763 264.454,226.000 264.600 C 226.231 264.742,226.400 266.871,226.400 269.624 C 226.400 272.541,226.244 274.400,226.000 274.400 C 225.780 274.400,225.600 274.919,225.600 275.554 C 225.600 276.189,225.331 277.224,225.002 277.854 C 224.674 278.484,224.404 279.484,224.402 280.076 C 224.401 280.668,224.220 281.264,224.000 281.400 C 223.780 281.536,223.600 282.447,223.600 283.424 C 223.600 284.401,223.420 285.200,223.200 285.200 C 222.980 285.200,222.800 285.819,222.800 286.576 C 222.800 287.333,222.620 288.064,222.400 288.200 C 222.180 288.336,222.000 288.887,222.000 289.424 C 222.000 289.961,221.864 290.400,221.698 290.400 C 221.077 290.400,220.395 292.738,220.142 295.734 C 219.998 297.435,219.719 298.927,219.521 299.049 C 219.321 299.172,219.369 299.522,219.630 299.836 C 219.966 300.241,219.972 300.400,219.649 300.400 C 219.347 300.400,219.200 301.709,219.200 304.400 C 219.200 306.800,219.040 308.400,218.800 308.400 C 218.543 308.400,218.400 312.400,218.400 319.600 C 218.400 326.800,218.543 330.800,218.800 330.800 C 219.020 330.800,219.200 331.779,219.200 332.976 C 219.200 334.173,219.380 335.264,219.600 335.400 C 219.820 335.536,220.000 336.141,220.000 336.744 C 220.000 338.174,220.670 338.800,222.200 338.800 C 223.665 338.800,225.592 339.616,225.597 340.238 C 225.599 340.479,225.960 341.002,226.400 341.400 C 226.840 341.798,227.200 342.335,227.200 342.593 C 227.200 344.080,233.318 348.800,235.246 348.800 C 235.881 348.800,236.400 348.980,236.400 349.200 C 236.400 349.420,236.760 349.600,237.200 349.600 C 237.640 349.600,238.000 349.780,238.000 350.000 C 238.000 350.220,238.242 350.400,238.538 350.400 C 238.834 350.400,239.402 350.760,239.800 351.200 C 240.198 351.640,240.766 352.000,241.062 352.000 C 241.358 352.000,241.600 352.242,241.600 352.538 C 241.600 352.834,241.960 353.402,242.400 353.800 C 243.740 355.012,243.470 357.145,241.754 358.912 L 240.309 360.400 235.978 360.400 C 233.522 360.400,231.540 360.227,231.400 360.000 C 231.264 359.780,229.734 359.600,228.000 359.600 C 226.266 359.600,224.736 359.420,224.600 359.200 C 224.464 358.980,223.953 358.800,223.465 358.800 C 222.976 358.800,222.317 358.440,222.000 358.000 C 221.387 357.149,220.211 356.936,219.800 357.600 C 219.664 357.820,218.933 358.000,218.176 358.000 C 217.419 358.000,216.799 358.135,216.797 358.300 C 216.792 358.780,214.740 359.600,213.544 359.600 C 212.941 359.600,212.336 359.780,212.200 360.000 C 212.064 360.220,210.804 360.400,209.400 360.400 C 207.996 360.400,206.736 360.220,206.600 360.000 C 206.464 359.780,205.935 359.600,205.425 359.600 C 203.749 359.600,202.890 353.133,204.439 352.176 C 204.638 352.053,204.800 351.344,204.800 350.600 C 204.800 349.856,204.980 349.136,205.200 349.000 C 205.420 348.864,205.600 348.313,205.600 347.776 C 205.600 347.239,205.780 346.800,206.000 346.800 C 206.220 346.800,206.400 346.361,206.400 345.824 C 206.400 345.287,206.580 344.736,206.800 344.600 C 207.020 344.464,207.200 343.913,207.200 343.376 C 207.200 342.839,207.380 342.400,207.600 342.400 C 207.831 342.400,208.000 341.141,208.000 339.424 C 208.000 337.787,207.820 336.336,207.600 336.200 C 207.380 336.064,207.200 335.434,207.200 334.800 C 207.200 334.166,207.020 333.536,206.800 333.400 C 206.580 333.264,206.400 332.353,206.400 331.376 C 206.400 330.399,206.220 329.600,206.000 329.600 C 205.780 329.600,205.600 328.610,205.600 327.400 C 205.600 326.190,205.420 325.200,205.200 325.200 C 204.980 325.200,204.800 324.581,204.800 323.824 C 204.800 323.067,204.646 322.352,204.459 322.236 C 204.271 322.120,203.993 320.536,203.841 318.715 C 203.689 316.895,203.393 315.233,203.183 315.023 C 202.972 314.812,202.800 313.337,202.800 311.744 C 202.800 310.151,202.620 308.736,202.400 308.600 C 202.180 308.464,202.000 306.754,202.000 304.800 C 202.000 302.846,202.180 301.136,202.400 301.000 C 202.620 300.864,202.800 299.539,202.800 298.056 C 202.800 296.573,202.979 295.181,203.198 294.962 C 203.417 294.743,203.714 293.171,203.858 291.468 C 204.002 289.766,204.273 288.279,204.460 288.163 C 204.946 287.862,204.890 277.303,204.400 277.000 C 204.180 276.864,203.999 276.088,203.998 275.276 C 203.996 274.464,203.726 273.284,203.398 272.654 C 203.069 272.024,202.800 270.989,202.800 270.354 C 202.800 269.719,202.620 269.200,202.400 269.200 C 202.180 269.200,202.000 268.761,202.000 268.224 C 202.000 267.687,201.820 267.136,201.600 267.000 C 201.380 266.864,201.200 266.148,201.200 265.410 C 201.200 264.671,201.025 264.007,200.811 263.933 C 200.596 263.860,200.299 261.498,200.149 258.685 C 199.999 255.872,199.724 253.477,199.538 253.362 C 199.352 253.247,199.200 252.353,199.200 251.376 C 199.200 250.399,199.020 249.600,198.800 249.600 C 198.580 249.600,198.400 248.981,198.400 248.224 C 198.400 247.467,198.220 246.736,198.000 246.600 C 197.780 246.464,197.598 245.868,197.597 245.276 C 197.594 244.598,197.077 243.655,196.197 242.727 C 195.072 241.540,194.800 240.937,194.800 239.627 C 194.800 238.732,194.620 238.000,194.400 238.000 C 194.160 238.000,194.000 236.408,194.000 234.024 C 194.000 231.804,193.823 229.938,193.600 229.800 C 193.078 229.478,193.078 222.922,193.600 222.600 C 193.820 222.464,194.000 221.114,194.000 219.600 C 194.000 218.086,194.180 216.736,194.400 216.600 C 194.620 216.464,194.800 215.733,194.800 214.976 C 194.800 214.219,194.972 213.600,195.182 213.600 C 195.392 213.600,195.690 212.925,195.845 212.100 C 196.000 211.275,196.458 210.010,196.863 209.288 C 197.268 208.566,197.600 207.621,197.600 207.188 C 197.600 206.755,197.780 206.400,198.000 206.400 C 198.220 206.400,198.400 205.961,198.400 205.424 C 198.400 204.887,198.580 204.336,198.800 204.200 C 199.020 204.064,199.200 203.164,199.200 202.200 C 199.200 201.236,199.020 200.336,198.800 200.200 C 198.580 200.064,198.400 198.343,198.400 196.376 C 198.400 194.259,198.237 192.800,198.000 192.800 C 197.780 192.800,197.600 192.378,197.600 191.862 C 197.600 191.346,197.240 190.598,196.800 190.200 C 196.360 189.802,196.000 189.306,196.000 189.098 C 196.000 188.640,194.738 185.879,194.400 185.600 C 194.267 185.490,193.840 184.770,193.450 184.000 C 192.295 181.717,191.767 180.847,191.064 180.071 C 190.699 179.667,190.400 179.193,190.400 179.017 C 190.400 178.841,189.770 178.000,189.000 177.147 C 188.230 176.295,187.600 175.304,187.600 174.946 C 187.600 174.587,187.276 174.003,186.880 173.647 C 186.483 173.291,185.840 172.370,185.450 171.600 C 184.293 169.314,183.766 168.447,183.064 167.671 C 182.699 167.267,182.400 166.726,182.400 166.469 C 182.400 166.211,182.220 166.000,182.000 166.000 C 181.780 166.000,181.600 165.640,181.600 165.200 C 181.600 164.760,181.420 164.400,181.201 164.400 C 180.716 164.400,178.800 160.529,178.800 159.549 C 178.800 159.163,178.620 158.736,178.400 158.600 C 178.180 158.464,178.000 157.834,178.000 157.200 C 178.000 156.566,177.820 155.936,177.600 155.800 C 177.380 155.664,177.200 154.753,177.200 153.776 C 177.200 152.799,177.020 152.000,176.800 152.000 C 176.580 152.000,176.400 151.743,176.400 151.429 C 176.400 151.114,176.175 150.619,175.900 150.329 C 175.007 149.385,172.800 144.713,172.800 143.767 C 172.800 143.261,172.647 142.752,172.459 142.637 C 172.272 142.521,172.014 141.188,171.888 139.676 C 171.748 138.008,171.331 136.345,170.829 135.451 C 170.373 134.639,170.000 133.621,170.000 133.188 C 170.000 132.755,169.820 132.400,169.600 132.400 C 169.380 132.400,169.200 131.961,169.200 131.424 C 169.200 130.887,169.033 130.344,168.828 130.217 C 168.623 130.091,168.332 128.998,168.181 127.788 C 168.030 126.579,167.748 125.491,167.553 125.371 C 167.359 125.251,167.200 124.173,167.200 122.976 C 167.200 121.779,167.020 120.800,166.800 120.800 C 166.580 120.800,166.400 120.170,166.400 119.400 C 166.400 118.630,166.220 118.000,166.000 118.000 C 165.780 118.000,165.600 117.381,165.600 116.624 C 165.600 115.867,165.420 115.136,165.200 115.000 C 164.980 114.864,164.800 114.144,164.800 113.400 C 164.800 112.656,164.641 111.949,164.448 111.829 C 164.254 111.710,163.968 110.259,163.813 108.606 C 163.658 106.953,163.367 105.600,163.166 105.600 C 162.965 105.600,162.800 105.161,162.800 104.624 C 162.800 104.087,162.620 103.536,162.400 103.400 C 162.180 103.264,162.000 102.533,162.000 101.776 C 162.000 101.019,161.820 100.400,161.600 100.400 C 161.380 100.400,161.200 99.961,161.200 99.424 C 161.200 98.887,161.034 98.345,160.831 98.219 C 160.628 98.094,160.343 97.453,160.199 96.795 C 160.055 96.138,159.771 95.600,159.568 95.600 C 159.366 95.600,159.200 95.060,159.200 94.400 C 159.200 93.740,159.065 93.199,158.900 93.197 C 158.509 93.193,157.600 91.228,157.600 90.387 C 157.600 90.027,157.477 89.610,157.326 89.459 C 156.853 88.987,156.073 86.388,155.794 84.353 C 155.646 83.279,155.362 82.400,155.162 82.400 C 154.963 82.400,154.800 81.781,154.800 81.024 C 154.800 80.267,154.620 79.536,154.400 79.400 C 154.180 79.264,154.000 78.713,154.000 78.176 C 154.000 77.639,153.820 77.200,153.600 77.200 C 153.380 77.200,153.200 76.606,153.200 75.880 C 153.200 75.154,152.984 74.344,152.720 74.080 C 152.141 73.501,149.200 73.434,149.200 74.000 C 149.200 74.231,147.933 74.400,146.200 74.400 C 144.467 74.400,143.200 74.231,143.200 74.000 C 143.200 73.769,141.933 73.600,140.200 73.600 C 138.550 73.600,137.200 73.441,137.200 73.247 C 137.200 73.052,136.841 72.799,136.402 72.685 C 135.963 72.570,135.481 72.144,135.330 71.738 C 135.179 71.332,134.728 70.709,134.328 70.353 C 133.927 69.997,133.600 69.441,133.600 69.117 C 133.600 68.793,133.150 68.323,132.600 68.073 C 132.050 67.822,131.600 67.343,131.600 67.009 C 131.600 66.674,131.420 66.400,131.200 66.400 C 130.980 66.400,130.800 65.994,130.800 65.497 C 130.800 64.790,130.444 64.484,129.156 64.082 C 127.311 63.506,126.400 62.761,126.400 61.829 C 126.400 61.483,126.220 61.200,126.000 61.200 C 125.780 61.200,125.600 60.778,125.600 60.262 C 125.600 59.746,125.239 58.997,124.797 58.597 C 123.102 57.063,121.819 50.800,123.200 50.800 C 123.420 50.800,123.600 50.271,123.600 49.624 C 123.600 48.977,123.420 48.336,123.200 48.200 C 122.248 47.611,122.733 41.568,123.800 40.729 C 124.647 40.062,124.800 39.610,124.800 37.771 C 124.800 36.577,124.980 35.600,125.200 35.600 C 125.420 35.600,125.600 35.384,125.600 35.119 C 125.600 34.463,128.031 32.000,128.678 32.000 C 128.965 32.000,129.200 31.820,129.200 31.600 C 129.200 31.380,129.656 31.200,130.213 31.200 C 130.810 31.200,131.334 30.913,131.489 30.500 C 132.156 28.733,136.287 26.000,138.291 26.000 C 138.849 26.000,139.603 25.658,139.966 25.239 C 141.042 23.999,148.556 23.596,149.679 24.719 " stroke="none" fill="#fcfcfc" fill-rule="evenodd"></path><path id="path1" d="M142.600 24.400 C 142.464 24.620,141.953 24.800,141.465 24.800 C 140.976 24.800,140.317 25.160,140.000 25.600 C 139.653 26.081,138.965 26.400,138.272 26.400 C 136.114 26.400,131.600 29.350,131.600 30.760 C 131.600 31.002,131.328 31.200,130.995 31.200 C 129.694 31.200,126.000 34.069,126.000 35.078 C 126.000 35.365,125.820 35.600,125.600 35.600 C 125.380 35.600,125.200 36.502,125.200 37.604 C 125.200 39.284,125.007 39.810,124.000 40.863 C 122.749 42.172,122.173 47.165,123.200 47.800 C 123.420 47.936,123.600 48.656,123.600 49.400 C 123.600 50.144,123.420 50.864,123.200 51.000 C 121.914 51.795,123.075 56.592,124.990 58.390 C 125.545 58.912,126.000 59.685,126.000 60.108 C 126.000 61.119,127.499 63.200,128.227 63.200 C 128.542 63.200,128.800 63.380,128.800 63.600 C 128.800 63.820,129.250 64.000,129.800 64.000 C 130.600 64.000,130.800 64.200,130.800 65.000 C 130.800 65.550,130.980 66.000,131.200 66.000 C 131.420 66.000,131.600 66.360,131.600 66.800 C 131.600 67.261,131.867 67.600,132.229 67.600 C 132.910 67.600,133.680 68.249,134.127 69.200 C 136.063 73.318,137.010 73.696,145.600 73.766 C 153.251 73.828,153.600 73.908,153.600 75.600 C 153.600 76.234,153.780 76.864,154.000 77.000 C 154.220 77.136,154.400 77.676,154.400 78.200 C 154.400 78.724,154.559 79.251,154.753 79.371 C 154.948 79.491,155.230 80.579,155.381 81.788 C 155.532 82.998,155.823 84.091,156.028 84.217 C 156.233 84.344,156.400 85.067,156.400 85.824 C 156.400 86.581,156.580 87.200,156.800 87.200 C 157.020 87.200,157.200 87.639,157.200 88.176 C 157.200 88.713,157.380 89.264,157.600 89.400 C 157.820 89.536,158.000 90.076,158.000 90.600 C 158.000 91.124,158.166 91.655,158.369 91.781 C 158.572 91.906,158.860 92.562,159.008 93.239 C 159.157 93.915,159.801 95.461,160.439 96.675 C 161.078 97.888,161.600 99.212,161.600 99.617 C 161.600 100.022,161.780 100.464,162.000 100.600 C 162.220 100.736,162.400 101.366,162.400 102.000 C 162.400 102.634,162.567 103.256,162.772 103.383 C 162.977 103.509,163.268 104.602,163.419 105.812 C 163.570 107.021,163.852 108.109,164.047 108.229 C 164.241 108.349,164.400 109.247,164.400 110.224 C 164.400 111.201,164.580 112.000,164.800 112.000 C 165.020 112.000,165.200 112.619,165.200 113.376 C 165.200 114.133,165.380 114.864,165.600 115.000 C 165.820 115.136,166.000 115.741,166.000 116.344 C 166.000 116.947,166.172 117.612,166.383 117.823 C 166.593 118.033,166.889 119.695,167.041 121.515 C 167.193 123.336,167.471 124.920,167.659 125.036 C 167.846 125.152,168.000 125.867,168.000 126.624 C 168.000 127.381,168.180 128.000,168.400 128.000 C 168.620 128.000,168.800 128.439,168.800 128.976 C 168.800 129.513,168.980 130.064,169.200 130.200 C 169.420 130.336,169.600 130.799,169.600 131.229 C 169.600 131.659,169.765 132.323,169.966 132.705 C 170.881 134.439,171.600 136.390,171.600 137.137 C 171.600 137.586,171.780 138.064,172.000 138.200 C 172.220 138.336,172.400 139.326,172.400 140.400 C 172.400 141.474,172.580 142.464,172.800 142.600 C 173.020 142.736,173.200 143.256,173.200 143.756 C 173.200 144.256,173.649 145.550,174.198 146.632 C 174.747 147.714,175.197 148.797,175.198 149.038 C 175.199 149.279,175.560 149.802,176.000 150.200 C 176.440 150.598,176.800 151.166,176.800 151.462 C 176.800 151.758,176.980 152.000,177.200 152.000 C 177.420 152.000,177.600 152.799,177.600 153.776 C 177.600 154.753,177.780 155.664,178.000 155.800 C 178.220 155.936,178.400 156.566,178.400 157.200 C 178.400 157.834,178.580 158.464,178.800 158.600 C 179.020 158.736,179.200 159.214,179.200 159.663 C 179.200 160.697,180.361 163.214,181.200 164.000 C 181.552 164.330,182.160 165.230,182.550 166.000 C 183.608 168.091,184.170 169.041,184.790 169.788 C 185.426 170.554,187.053 173.451,187.437 174.500 C 187.578 174.885,187.852 175.200,188.047 175.200 C 188.241 175.200,188.400 175.439,188.400 175.730 C 188.400 176.022,188.869 176.697,189.442 177.230 C 190.016 177.764,190.654 178.560,190.860 179.000 C 191.465 180.292,192.228 181.544,192.870 182.297 C 193.199 182.684,194.231 184.564,195.164 186.476 C 196.097 188.388,197.117 190.165,197.430 190.425 C 197.744 190.685,198.000 191.290,198.000 191.769 C 198.000 192.248,198.173 192.813,198.384 193.024 C 198.948 193.588,199.098 205.251,198.557 206.433 C 198.313 206.965,197.728 208.182,197.257 209.138 C 196.786 210.094,196.400 211.108,196.400 211.392 C 196.400 211.676,196.131 212.424,195.802 213.054 C 195.474 213.684,195.204 214.684,195.202 215.276 C 195.201 215.868,195.020 216.464,194.800 216.600 C 194.580 216.736,194.400 218.086,194.400 219.600 C 194.400 221.114,194.220 222.464,194.000 222.600 C 193.478 222.922,193.478 229.478,194.000 229.800 C 194.223 229.938,194.400 231.804,194.400 234.024 C 194.400 236.408,194.560 238.000,194.800 238.000 C 195.020 238.000,195.200 238.770,195.200 239.712 C 195.200 241.150,195.424 241.635,196.600 242.744 C 197.566 243.655,198.000 244.420,198.000 245.209 C 198.000 245.838,198.165 246.455,198.366 246.579 C 198.567 246.704,198.859 248.157,199.014 249.808 C 199.168 251.460,199.454 252.910,199.648 253.029 C 199.841 253.149,200.000 254.677,200.000 256.424 C 200.000 258.275,200.167 259.600,200.400 259.600 C 200.620 259.600,200.800 260.590,200.800 261.800 C 200.800 263.010,200.980 264.000,201.200 264.000 C 201.420 264.000,201.600 264.619,201.600 265.376 C 201.600 266.133,201.780 266.864,202.000 267.000 C 202.220 267.136,202.400 267.676,202.400 268.200 C 202.400 268.724,202.580 269.264,202.800 269.400 C 203.020 269.536,203.201 270.132,203.202 270.724 C 203.204 271.316,203.474 272.316,203.802 272.946 C 204.131 273.576,204.400 274.690,204.400 275.422 C 204.400 276.154,204.580 276.864,204.800 277.000 C 205.035 277.145,205.200 279.471,205.200 282.624 C 205.200 285.941,205.047 288.000,204.800 288.000 C 204.580 288.000,204.400 288.954,204.400 290.120 C 204.400 291.286,204.207 292.433,203.971 292.669 C 203.735 292.905,203.438 294.837,203.311 296.962 C 203.185 299.088,202.928 300.921,202.740 301.037 C 202.297 301.311,202.296 308.288,202.739 308.562 C 202.925 308.677,203.187 310.696,203.320 313.047 C 203.453 315.398,203.751 317.511,203.981 317.741 C 204.211 317.971,204.400 319.013,204.400 320.056 C 204.400 321.099,204.580 322.064,204.800 322.200 C 205.020 322.336,205.200 322.966,205.200 323.600 C 205.200 324.234,205.380 324.864,205.600 325.000 C 205.820 325.136,206.000 326.216,206.000 327.400 C 206.000 328.584,206.156 329.649,206.347 329.768 C 206.539 329.886,206.819 331.242,206.971 332.782 C 207.122 334.322,207.416 335.686,207.623 335.814 C 208.101 336.109,208.122 342.278,207.646 342.571 C 207.452 342.692,207.171 343.598,207.023 344.586 C 206.875 345.573,206.584 346.486,206.377 346.614 C 206.170 346.742,206.000 347.276,206.000 347.800 C 206.000 348.324,205.820 348.864,205.600 349.000 C 205.380 349.136,205.200 349.867,205.200 350.624 C 205.200 351.381,205.020 352.000,204.800 352.000 C 204.580 352.000,204.400 352.619,204.400 353.376 C 204.400 354.133,204.220 354.864,204.000 355.000 C 202.875 355.695,204.105 359.192,205.476 359.197 C 205.958 359.199,206.464 359.380,206.600 359.600 C 206.925 360.125,212.400 360.125,212.400 359.600 C 212.400 359.380,212.935 359.200,213.588 359.200 C 214.241 359.200,215.389 358.856,216.138 358.435 C 218.112 357.326,221.687 356.941,222.370 357.764 C 222.660 358.114,223.225 358.400,223.625 358.400 C 224.025 358.400,224.464 358.580,224.600 358.800 C 224.736 359.020,226.266 359.200,228.000 359.200 C 229.734 359.200,231.264 359.380,231.400 359.600 C 231.540 359.827,233.511 360.000,235.945 360.000 L 240.243 360.000 241.522 358.681 C 242.945 357.212,243.281 354.897,242.200 354.000 C 241.870 353.726,241.600 353.264,241.600 352.973 C 241.600 352.448,240.790 351.913,237.900 350.529 C 237.075 350.134,236.400 349.674,236.400 349.506 C 236.400 349.338,235.858 349.200,235.195 349.200 C 233.301 349.200,227.877 344.962,226.748 342.600 C 225.405 339.791,224.124 338.800,221.834 338.800 C 220.271 338.800,219.600 338.182,219.600 336.744 C 219.600 336.141,219.420 335.536,219.200 335.400 C 218.980 335.264,218.800 334.274,218.800 333.200 C 218.800 332.126,218.620 331.136,218.400 331.000 C 218.149 330.845,218.000 326.670,218.000 319.800 C 218.000 312.930,218.149 308.755,218.400 308.600 C 218.623 308.462,218.800 306.607,218.800 304.410 C 218.800 301.630,218.948 300.407,219.300 300.264 C 219.689 300.106,219.679 299.976,219.257 299.680 C 218.878 299.415,218.848 299.218,219.157 299.026 C 219.401 298.876,219.600 297.874,219.600 296.800 C 219.600 295.726,219.780 294.736,220.000 294.600 C 220.220 294.464,220.400 293.844,220.400 293.222 C 220.400 292.600,220.669 291.576,220.998 290.946 C 221.326 290.316,221.596 289.496,221.598 289.124 C 221.599 288.752,221.780 288.336,222.000 288.200 C 222.220 288.064,222.400 287.344,222.400 286.600 C 222.400 285.856,222.580 285.136,222.800 285.000 C 223.020 284.864,223.200 284.054,223.200 283.200 C 223.200 282.346,223.380 281.536,223.600 281.400 C 223.820 281.264,224.000 280.533,224.000 279.776 C 224.000 279.019,224.136 278.400,224.302 278.400 C 225.689 278.400,226.527 254.767,225.187 253.427 C 224.974 253.214,224.800 250.570,224.800 247.552 L 224.800 242.064 225.995 241.801 C 226.653 241.657,227.294 241.372,227.419 241.169 C 227.545 240.966,228.076 240.800,228.600 240.800 C 229.124 240.800,229.664 240.620,229.800 240.400 C 229.936 240.180,230.487 240.000,231.024 240.000 C 231.561 240.000,232.001 239.865,232.003 239.700 C 232.010 239.080,234.234 238.400,236.256 238.400 C 237.409 238.400,238.464 238.220,238.600 238.000 C 238.736 237.780,239.195 237.600,239.621 237.600 C 240.589 237.600,243.600 236.318,243.600 235.906 C 243.600 235.738,244.022 235.600,244.538 235.600 C 245.054 235.600,245.787 235.256,246.167 234.836 C 246.548 234.416,247.341 233.952,247.929 233.806 C 248.518 233.660,249.405 233.163,249.900 232.701 C 250.712 231.942,250.800 231.930,250.800 232.570 C 250.800 233.496,249.611 236.036,248.819 236.800 C 248.184 237.413,247.070 239.317,245.641 242.235 C 245.200 243.134,244.561 244.101,244.220 244.384 C 243.879 244.666,243.600 245.146,243.600 245.449 C 243.600 245.752,243.446 246.000,243.258 246.000 C 243.070 246.000,242.749 246.585,242.545 247.300 C 242.198 248.517,242.047 248.608,240.187 248.724 C 239.094 248.792,238.029 249.017,237.820 249.224 C 237.611 249.431,236.137 249.600,234.544 249.600 C 232.951 249.600,231.536 249.780,231.400 250.000 C 231.264 250.220,230.713 250.400,230.176 250.400 C 229.625 250.400,229.200 250.634,229.200 250.938 C 229.200 251.234,228.840 251.802,228.400 252.200 C 227.960 252.598,227.600 253.245,227.600 253.638 C 227.600 254.031,227.420 254.464,227.200 254.600 C 226.678 254.922,226.678 260.678,227.200 261.000 C 227.420 261.136,227.600 261.614,227.600 262.063 C 227.600 262.512,228.140 263.383,228.800 264.000 C 229.460 264.617,230.000 265.319,230.000 265.560 C 230.000 265.802,230.270 266.000,230.600 266.000 C 231.869 266.000,231.340 268.907,229.800 270.400 C 229.030 271.146,228.400 271.992,228.400 272.278 C 228.400 272.565,228.220 272.800,228.000 272.800 C 227.780 272.800,227.600 273.160,227.600 273.600 C 227.600 274.040,227.420 274.400,227.200 274.400 C 226.956 274.400,226.800 276.259,226.800 279.176 C 226.800 281.929,226.969 284.058,227.200 284.200 C 227.420 284.336,227.600 284.887,227.600 285.424 C 227.600 285.961,227.780 286.400,228.000 286.400 C 228.220 286.400,228.400 286.760,228.400 287.200 C 228.400 287.640,228.580 288.000,228.800 288.000 C 229.020 288.000,229.200 288.235,229.200 288.522 C 229.200 289.169,231.663 291.600,232.319 291.600 C 232.584 291.600,232.800 291.780,232.800 292.000 C 232.800 292.601,235.315 292.481,236.649 291.815 C 238.853 290.716,240.800 287.988,240.800 286.000 C 240.800 285.334,240.971 284.477,241.180 284.095 C 241.390 283.713,241.672 282.368,241.808 281.106 C 241.945 279.845,242.223 278.709,242.428 278.583 C 242.633 278.456,242.800 277.913,242.800 277.376 C 242.800 276.839,242.980 276.400,243.200 276.400 C 243.420 276.400,243.600 275.961,243.600 275.424 C 243.600 274.887,243.780 274.336,244.000 274.200 C 244.220 274.064,244.400 273.344,244.400 272.600 C 244.400 271.856,244.560 271.149,244.755 271.028 C 244.950 270.907,245.224 270.195,245.365 269.445 C 245.506 268.694,245.883 267.863,246.202 267.598 C 247.602 266.437,248.516 263.166,247.600 262.600 C 246.918 262.178,247.160 260.606,248.000 260.000 C 248.440 259.683,248.800 259.185,248.800 258.893 C 248.800 258.601,249.250 257.945,249.800 257.435 C 250.350 256.925,250.800 256.339,250.800 256.133 C 250.800 255.926,251.430 255.146,252.200 254.400 C 252.970 253.654,253.600 252.847,253.600 252.608 C 253.600 252.369,254.590 251.195,255.800 250.000 C 257.010 248.805,258.000 247.637,258.000 247.404 C 258.000 247.171,259.350 245.639,261.000 244.000 C 262.650 242.361,264.000 240.791,264.000 240.510 C 264.000 240.230,264.274 240.000,264.610 240.000 C 264.945 240.000,265.376 239.588,265.568 239.085 C 265.759 238.581,266.655 237.501,267.558 236.686 C 268.461 235.870,269.200 235.018,269.200 234.794 C 269.200 234.570,269.830 233.774,270.600 233.026 C 271.370 232.279,272.000 231.401,272.000 231.076 C 272.000 230.751,272.255 230.388,272.566 230.268 C 273.127 230.053,273.592 229.315,275.151 226.165 C 275.596 225.266,276.239 224.299,276.580 224.016 C 276.921 223.734,277.200 223.285,277.200 223.021 C 277.200 222.756,277.650 222.117,278.200 221.600 C 278.750 221.083,279.202 220.467,279.204 220.230 C 279.206 219.994,279.746 219.375,280.404 218.855 C 281.062 218.335,281.601 217.705,281.602 217.455 C 281.603 217.205,282.053 216.114,282.602 215.032 C 283.748 212.773,284.055 206.398,283.100 204.701 C 282.168 203.045,277.675 198.800,276.854 198.800 C 276.410 198.800,275.936 198.620,275.800 198.400 C 275.500 197.915,269.334 197.860,269.037 198.340 C 268.922 198.526,267.262 198.790,265.349 198.925 C 263.435 199.060,261.683 199.357,261.455 199.585 C 261.227 199.813,260.457 200.000,259.744 200.000 C 259.031 200.000,258.336 200.180,258.200 200.400 C 258.064 200.620,257.254 200.800,256.400 200.800 C 255.546 200.800,254.736 200.980,254.600 201.200 C 254.464 201.420,253.949 201.600,253.456 201.600 C 252.963 201.600,252.389 201.757,252.180 201.948 C 251.430 202.636,249.751 202.763,248.691 202.214 C 248.099 201.906,247.526 201.797,247.418 201.971 C 247.311 202.145,246.117 202.387,244.765 202.510 C 243.413 202.632,242.112 202.928,241.874 203.166 C 241.635 203.405,241.121 203.600,240.732 203.600 C 240.343 203.600,239.383 203.960,238.600 204.400 C 237.817 204.840,236.898 205.200,236.559 205.200 C 236.220 205.200,235.673 205.470,235.343 205.800 C 234.372 206.771,234.091 206.516,233.800 204.400 C 233.649 203.300,233.362 202.400,233.162 202.400 C 232.963 202.400,232.800 202.040,232.800 201.600 C 232.800 201.160,232.620 200.800,232.400 200.800 C 232.180 200.800,232.000 200.361,232.000 199.824 C 232.000 199.287,231.820 198.736,231.600 198.600 C 231.380 198.464,231.200 197.913,231.200 197.376 C 231.200 196.839,231.020 196.400,230.800 196.400 C 230.580 196.400,230.400 196.051,230.400 195.624 C 230.400 195.197,230.220 194.736,230.000 194.600 C 229.780 194.464,229.599 194.048,229.598 193.676 C 229.596 193.304,229.315 192.464,228.974 191.808 C 228.572 191.039,228.502 190.566,228.776 190.475 C 229.314 190.295,229.335 186.531,228.800 186.200 C 228.580 186.064,228.400 185.074,228.400 184.000 C 228.400 182.926,228.220 181.936,228.000 181.800 C 227.750 181.645,227.600 177.663,227.600 171.176 C 227.600 164.525,227.456 160.800,227.200 160.800 C 226.980 160.800,226.800 160.361,226.800 159.824 C 226.800 159.287,226.634 158.745,226.431 158.619 C 226.228 158.494,225.947 157.872,225.808 157.237 C 225.669 156.602,225.205 155.766,224.777 155.379 C 224.350 154.993,224.000 154.484,224.000 154.250 C 224.000 153.677,228.455 149.200,229.025 149.200 C 229.273 149.200,229.802 148.840,230.200 148.400 C 230.598 147.960,231.100 147.600,231.315 147.600 C 231.530 147.600,231.997 147.272,232.353 146.872 C 232.709 146.471,233.585 145.802,234.300 145.385 C 235.015 144.969,235.600 144.486,235.600 144.314 C 235.600 144.141,235.811 144.000,236.069 144.000 C 236.326 144.000,236.867 143.701,237.271 143.336 C 238.115 142.572,239.174 141.939,241.300 140.926 C 242.125 140.533,242.800 140.074,242.800 139.906 C 242.800 139.738,243.160 139.600,243.600 139.600 C 244.040 139.600,244.400 139.414,244.400 139.187 C 244.400 138.959,245.030 138.401,245.800 137.947 C 246.570 137.493,247.200 136.869,247.200 136.560 C 247.200 136.204,247.638 136.000,248.400 136.000 C 249.060 136.000,249.601 136.135,249.603 136.300 C 249.609 136.820,251.705 137.600,253.098 137.600 C 253.992 137.600,254.768 137.932,255.436 138.600 C 256.481 139.645,261.200 140.136,261.200 139.200 C 261.200 138.618,263.891 138.709,264.167 139.300 C 264.353 139.700,264.447 139.700,264.633 139.300 C 264.762 139.025,265.184 138.800,265.572 138.800 C 266.393 138.800,268.678 137.722,269.016 137.175 C 269.143 136.969,269.689 136.800,270.229 136.800 C 271.866 136.800,275.600 134.103,275.600 132.922 C 275.600 132.635,275.839 132.400,276.130 132.400 C 276.739 132.400,278.400 130.749,278.400 130.144 C 278.400 129.593,280.136 128.000,280.736 128.000 C 281.002 128.000,281.399 127.505,281.618 126.900 C 281.837 126.295,282.238 125.366,282.508 124.835 C 282.899 124.067,282.897 123.835,282.500 123.701 C 281.909 123.503,281.816 120.800,282.400 120.800 C 282.620 120.800,282.800 119.810,282.800 118.600 C 282.800 117.390,282.980 116.400,283.200 116.400 C 283.420 116.400,283.600 116.040,283.600 115.600 C 283.600 115.160,283.777 114.800,283.993 114.800 C 284.209 114.800,284.018 114.145,283.569 113.344 C 282.992 112.318,282.876 111.764,283.176 111.464 C 283.714 110.926,283.734 108.400,283.200 108.400 C 282.980 108.400,282.798 108.175,282.797 107.900 C 282.795 107.625,282.165 106.737,281.397 105.927 C 280.628 105.116,280.000 104.207,280.000 103.906 C 280.000 103.025,279.038 101.207,278.570 101.203 C 277.901 101.198,276.400 99.429,276.400 98.646 C 276.400 97.551,274.334 96.000,272.875 96.000 C 272.471 96.000,271.717 95.550,271.200 95.000 C 270.683 94.450,270.022 94.000,269.730 94.000 C 269.439 94.000,269.200 93.820,269.200 93.600 C 269.200 93.083,266.524 93.076,266.205 93.592 C 265.926 94.044,264.560 93.378,263.557 92.300 C 262.654 91.329,260.318 91.385,259.400 92.400 C 258.602 93.282,256.069 93.509,255.325 92.765 C 255.012 92.452,254.815 92.452,254.622 92.765 C 254.474 93.004,253.996 93.200,253.559 93.200 C 253.122 93.200,252.291 93.639,251.713 94.176 C 250.965 94.869,250.361 95.093,249.630 94.947 C 248.297 94.682,246.449 95.393,246.129 96.294 C 245.677 97.567,244.694 98.400,243.638 98.406 C 240.783 98.422,237.573 103.347,239.600 104.600 C 240.176 104.956,240.092 105.600,239.470 105.600 C 238.659 105.600,237.200 107.344,237.200 108.314 C 237.200 108.788,236.840 109.817,236.400 110.600 C 235.361 112.451,235.674 115.584,236.900 115.597 C 237.065 115.599,237.200 116.770,237.200 118.200 C 237.200 119.630,237.336 120.800,237.502 120.800 C 238.866 120.800,239.414 127.218,238.100 127.795 C 237.605 128.012,237.200 128.327,237.200 128.495 C 237.200 128.663,236.911 128.800,236.558 128.800 C 236.204 128.800,235.561 129.250,235.129 129.800 C 234.696 130.350,234.119 130.800,233.846 130.800 C 233.573 130.800,232.832 131.340,232.200 132.000 C 231.568 132.660,230.814 133.200,230.525 133.200 C 230.236 133.200,230.000 133.476,230.000 133.813 C 230.000 134.149,229.685 134.535,229.300 134.669 C 228.915 134.804,227.854 135.627,226.942 136.499 C 225.282 138.086,224.014 138.965,222.700 139.440 C 222.315 139.579,222.000 139.852,222.000 140.047 C 222.000 140.241,221.561 140.400,221.024 140.400 C 220.487 140.400,219.936 140.580,219.800 140.800 C 219.664 141.020,218.753 141.200,217.776 141.200 C 216.799 141.200,216.000 141.380,216.000 141.600 C 216.000 141.820,215.550 142.000,215.000 142.000 C 213.861 142.000,213.865 142.008,214.390 140.626 C 214.605 140.062,215.010 139.598,215.290 139.596 C 216.232 139.588,218.000 135.060,218.000 132.655 C 218.000 131.441,218.180 130.336,218.400 130.200 C 218.892 129.896,218.942 120.935,218.453 120.633 C 218.262 120.515,217.983 119.498,217.834 118.374 C 217.417 115.227,214.638 111.492,212.338 110.986 C 211.717 110.850,211.106 110.572,210.981 110.369 C 210.855 110.166,209.874 110.000,208.800 110.000 C 207.726 110.000,206.736 109.820,206.600 109.600 C 206.464 109.380,204.923 109.200,203.176 109.200 C 201.325 109.200,200.000 109.367,200.000 109.600 C 200.000 109.820,199.308 110.000,198.461 110.000 C 196.176 110.000,192.800 112.112,192.800 113.541 C 192.800 113.725,192.440 114.202,192.000 114.600 C 191.560 114.998,191.200 115.655,191.200 116.059 C 191.200 116.998,189.909 120.000,189.506 120.000 C 189.338 120.000,189.200 120.360,189.200 120.800 C 189.200 121.240,189.064 121.600,188.898 121.600 C 188.731 121.600,188.347 122.185,188.044 122.900 C 184.301 131.728,184.352 131.663,183.141 129.167 C 181.754 126.309,181.200 124.852,181.200 124.063 C 181.200 123.614,181.020 123.136,180.800 123.000 C 180.580 122.864,180.400 122.313,180.400 121.776 C 180.400 121.239,180.220 120.800,180.000 120.800 C 179.780 120.800,179.600 120.361,179.600 119.824 C 179.600 119.287,179.420 118.736,179.200 118.600 C 178.980 118.464,178.800 117.733,178.800 116.976 C 178.800 116.219,178.637 115.600,178.438 115.600 C 178.238 115.600,177.951 114.700,177.800 113.600 C 177.649 112.501,177.362 111.500,177.163 111.377 C 176.963 111.254,176.800 110.634,176.800 110.000 C 176.800 109.366,176.620 108.736,176.400 108.600 C 176.180 108.464,176.000 108.020,176.000 107.614 C 176.000 106.976,175.527 105.843,173.955 102.714 C 173.765 102.336,173.493 101.031,173.350 99.814 C 173.207 98.596,172.935 97.600,172.745 97.600 C 172.555 97.600,172.400 97.268,172.400 96.861 C 172.400 95.942,171.373 93.842,170.617 93.214 C 170.306 92.956,169.928 92.184,169.778 91.499 C 169.627 90.815,169.166 89.651,168.752 88.915 C 168.338 88.178,168.000 87.347,168.000 87.068 C 168.000 86.341,167.056 84.407,166.700 84.403 C 166.535 84.401,166.400 84.051,166.400 83.624 C 166.400 83.197,166.220 82.736,166.000 82.600 C 165.780 82.464,165.599 82.048,165.598 81.676 C 165.596 81.304,165.326 80.484,164.998 79.854 C 164.669 79.224,164.400 78.189,164.400 77.554 C 164.400 76.919,164.265 76.399,164.100 76.397 C 163.699 76.393,162.800 74.419,162.800 73.544 C 162.800 73.161,162.644 72.751,162.454 72.633 C 160.689 71.542,161.996 68.436,164.230 68.413 C 165.878 68.396,168.000 65.915,168.000 64.005 C 168.000 63.562,168.235 63.200,168.522 63.200 C 169.428 63.200,171.600 60.626,171.600 59.551 C 171.600 58.989,172.045 58.122,172.600 57.600 C 173.150 57.083,173.600 56.253,173.600 55.754 C 173.600 55.255,173.780 54.736,174.000 54.600 C 174.560 54.254,174.498 53.080,173.854 51.839 C 173.482 51.122,173.369 49.924,173.501 48.081 C 173.657 45.912,173.567 45.270,173.047 44.839 C 172.578 44.450,172.400 43.618,172.400 41.812 C 172.400 39.205,171.773 37.442,170.403 36.203 C 169.961 35.803,169.600 35.158,169.600 34.769 C 169.600 33.836,166.481 30.800,165.524 30.800 C 165.112 30.800,164.656 30.489,164.510 30.109 C 163.898 28.514,161.703 26.865,159.817 26.582 C 158.643 26.406,157.770 26.021,157.476 25.550 C 157.201 25.110,156.550 24.800,155.898 24.800 C 155.288 24.800,154.408 24.575,153.942 24.300 C 153.265 23.900,153.059 23.900,152.914 24.300 C 152.815 24.575,152.334 24.800,151.847 24.800 C 151.359 24.800,150.764 24.996,150.525 25.235 C 150.212 25.548,150.015 25.548,149.822 25.235 C 149.674 24.996,149.113 24.800,148.576 24.800 C 148.039 24.800,147.600 24.620,147.600 24.400 C 147.600 24.178,146.541 24.000,145.224 24.000 C 143.917 24.000,142.736 24.180,142.600 24.400 " stroke="none" fill="#040404" fill-rule="evenodd"></path><path id="path2" d="" stroke="none" fill="#bc10080" fill-rule="evenodd"></path><path id="path3" d="" stroke="none" fill="#bc10080" fill-rule="evenodd"></path><path id="path4" d="" stroke="none" fill="#bc10080" fill-rule="evenodd"></path></g></svg>