<svg id="svg" version="1.1" xmlns="http://www.w3.org/2000/svg" xmlns:xlink="http://www.w3.org/1999/xlink" width="400" height="400" viewBox="0, 0, 400,400"><g id="svgg"><path id="path0" d="M114.202 57.596 C 114.068 57.814,115.136 59.780,116.577 61.965 C 119.343 66.160,120.260 68.000,119.586 68.000 C 116.828 68.000,114.496 70.656,115.359 72.814 C 115.743 73.773,115.831 74.457,115.590 74.606 C 114.096 75.530,116.809 78.400,119.175 78.400 C 120.255 78.400,121.536 78.809,122.938 79.600 C 124.108 80.260,125.535 80.800,126.109 80.800 C 126.887 80.800,127.645 81.380,129.077 83.072 C 137.312 92.802,141.124 96.275,147.877 100.204 C 153.496 103.473,153.837 103.762,156.200 107.246 C 157.300 108.869,158.380 110.415,158.600 110.684 C 161.475 114.190,163.326 116.114,164.910 117.241 C 172.326 122.518,173.274 123.521,173.972 126.838 C 174.650 130.062,175.902 134.135,178.202 140.600 C 184.799 159.141,185.895 165.327,183.998 173.315 C 181.989 181.773,181.556 189.384,182.604 197.800 C 183.406 204.237,183.561 205.133,184.191 207.000 C 185.678 211.402,186.797 215.291,187.357 218.000 C 187.960 220.918,189.394 226.462,191.445 233.800 C 191.998 235.780,192.877 238.930,193.399 240.800 C 195.511 248.377,195.956 249.957,196.998 253.600 C 197.596 255.690,198.336 258.171,198.643 259.114 C 199.302 261.140,199.352 264.758,198.754 267.000 C 197.742 270.787,197.231 274.451,197.219 278.000 C 197.199 283.991,197.624 286.038,201.414 298.200 C 204.642 308.561,205.204 311.610,204.396 314.403 C 204.173 315.171,203.810 317.420,203.589 319.400 C 203.244 322.484,202.893 323.593,201.140 327.139 C 197.993 333.503,198.167 336.904,201.828 340.565 C 206.088 344.825,213.448 342.215,214.137 336.200 C 214.263 335.100,214.678 331.554,215.060 328.319 C 215.810 321.968,215.571 319.006,214.015 315.386 C 212.633 312.172,212.633 312.170,214.178 297.200 C 215.025 288.993,214.973 281.904,214.030 276.955 L 213.259 272.911 214.232 266.556 C 214.767 263.060,215.329 259.930,215.481 259.600 C 215.633 259.270,215.874 254.140,216.018 248.200 C 216.161 242.260,216.519 234.224,216.812 230.343 C 217.297 223.943,217.281 222.812,216.640 218.209 C 216.252 215.417,215.999 213.068,216.078 212.989 C 217.233 211.834,219.518 210.849,221.847 210.504 C 233.443 208.783,245.808 191.095,248.763 172.000 C 250.908 158.146,251.644 155.463,253.978 153.000 C 254.604 152.340,255.574 150.900,256.134 149.800 C 256.694 148.700,258.337 146.450,259.785 144.800 C 267.824 135.639,268.247 134.462,272.591 109.200 C 273.759 102.406,273.552 102.820,276.505 101.400 C 277.877 100.740,279.682 99.525,280.515 98.700 C 281.457 97.769,282.411 97.200,283.034 97.200 C 285.803 97.200,286.671 94.104,285.109 89.800 C 284.380 87.789,284.235 86.515,284.219 81.942 C 284.203 77.323,284.092 76.365,283.500 75.711 C 283.115 75.285,282.794 74.591,282.786 74.169 C 282.778 73.746,282.514 72.950,282.200 72.400 C 281.886 71.850,281.622 70.888,281.614 70.263 C 281.605 69.488,281.357 69.062,280.838 68.926 C 280.375 68.805,279.648 67.760,278.985 66.263 C 274.363 55.832,266.800 56.601,266.800 67.502 C 266.800 76.803,264.876 84.441,261.937 86.802 C 260.283 88.132,260.054 88.815,261.000 89.600 C 261.885 90.335,261.745 90.705,260.300 91.450 C 257.883 92.695,253.418 95.787,250.406 98.300 L 247.409 100.800 242.205 100.814 C 239.226 100.822,235.888 101.073,234.400 101.400 C 230.249 102.313,227.797 102.173,219.700 100.564 C 219.045 100.433,218.800 100.103,218.800 99.350 C 218.800 98.594,218.962 98.377,219.400 98.545 C 219.821 98.706,220.002 98.511,220.006 97.887 C 220.010 97.264,220.111 97.155,220.343 97.522 C 220.749 98.162,221.359 88.785,221.228 83.917 C 221.156 81.234,221.290 80.171,221.813 79.286 C 223.652 76.172,217.456 70.742,213.872 72.327 L 212.075 73.122 211.008 72.008 C 210.203 71.168,209.432 70.838,207.870 70.666 C 206.732 70.541,204.988 70.321,203.996 70.178 C 201.963 69.885,200.233 71.096,199.733 73.163 C 199.532 73.995,195.216 80.811,194.391 81.600 C 194.276 81.710,193.857 82.309,193.461 82.931 C 193.065 83.553,191.474 85.500,189.925 87.258 L 187.109 90.453 188.654 90.164 C 190.336 89.849,190.245 90.244,188.200 92.125 C 187.760 92.530,187.625 92.747,187.900 92.607 C 188.692 92.204,188.482 92.961,187.514 94.000 C 186.832 94.732,186.786 94.891,187.314 94.688 C 188.285 94.316,188.165 94.943,187.000 96.327 C 185.827 97.721,185.746 98.073,186.679 97.714 C 187.228 97.504,187.184 97.699,186.452 98.727 C 185.706 99.774,185.658 100.000,186.180 100.000 C 186.953 100.000,185.419 103.282,183.514 105.700 C 182.003 107.619,181.658 107.595,176.814 105.226 C 174.594 104.140,171.764 103.042,170.525 102.784 C 168.445 102.353,167.990 102.035,164.608 98.658 C 155.924 89.989,151.610 86.386,148.690 85.368 C 147.760 85.044,146.237 84.424,145.304 83.989 C 144.372 83.555,143.515 83.200,143.400 83.200 C 143.286 83.200,142.249 82.535,141.096 81.723 C 137.097 78.905,135.789 78.127,133.555 77.242 C 131.046 76.247,129.905 75.160,126.791 70.800 C 125.613 69.150,124.261 67.494,123.787 67.120 C 123.313 66.746,122.223 65.396,121.365 64.120 C 117.719 58.699,115.033 56.252,114.202 57.596 M261.600 104.142 C 261.600 104.220,260.604 106.695,259.386 109.642 C 251.842 127.903,249.705 132.004,244.820 137.600 C 243.571 139.030,241.848 141.280,240.991 142.600 C 240.134 143.920,238.201 146.240,236.696 147.756 C 233.884 150.588,233.164 151.710,230.970 156.682 C 229.168 160.768,224.611 167.378,223.900 166.938 C 222.097 165.824,219.183 155.213,219.506 150.933 L 219.691 148.467 221.401 148.467 C 225.581 148.467,230.954 142.262,229.498 139.118 C 228.259 136.442,226.400 132.058,226.400 131.811 C 226.400 131.671,226.054 130.798,225.632 129.871 C 224.780 128.000,223.420 122.824,223.017 119.913 C 222.705 117.666,222.207 117.873,230.051 116.991 C 234.467 116.495,236.328 116.072,239.851 114.765 C 245.474 112.679,246.738 112.262,250.613 111.210 C 253.569 110.408,254.113 110.087,257.413 107.192 C 260.602 104.395,261.600 103.668,261.600 104.142 " stroke="none" fill="#050505" fill-rule="evenodd"></path><path id="path1" d="M0.000 200.000 L 0.000 400.000 200.000 400.000 L 400.000 400.000 400.000 200.000 L 400.000 0.000 200.000 0.000 L 0.000 0.000 0.000 200.000 M117.143 58.244 C 118.070 59.038,119.623 60.903,120.593 62.390 C 121.563 63.876,122.918 65.611,123.603 66.246 C 124.288 66.881,125.761 68.644,126.876 70.165 C 129.183 73.311,131.939 76.400,132.439 76.400 C 133.307 76.400,137.485 78.623,139.527 80.171 C 141.999 82.045,144.888 83.598,147.400 84.404 C 149.811 85.178,152.550 86.752,154.284 88.360 C 155.137 89.152,156.998 90.863,158.418 92.162 C 162.948 96.305,163.752 97.073,166.141 99.533 C 168.029 101.477,168.803 101.995,170.141 102.208 C 171.734 102.463,173.388 103.135,178.594 105.646 C 179.911 106.281,181.182 106.800,181.419 106.800 C 182.679 106.800,186.367 101.124,185.660 100.273 C 185.396 99.954,185.443 99.555,185.806 99.060 C 186.102 98.654,186.247 98.067,186.128 97.756 C 186.008 97.445,186.114 96.945,186.362 96.646 C 186.611 96.346,186.699 95.802,186.558 95.436 C 186.413 95.057,186.593 94.450,186.976 94.027 C 187.496 93.452,187.530 93.243,187.125 93.108 C 186.775 92.992,187.000 92.583,187.800 91.879 L 189.000 90.825 187.900 90.813 C 186.405 90.795,186.510 90.036,188.235 88.378 C 191.458 85.282,197.271 77.306,199.170 73.373 C 200.962 69.661,201.072 69.620,207.772 70.172 C 209.760 70.336,210.287 70.547,211.027 71.475 L 211.910 72.582 214.009 71.910 C 218.008 70.631,224.125 76.049,222.255 79.214 C 221.678 80.192,221.560 81.145,221.651 84.114 C 221.794 88.753,221.191 98.359,220.739 98.637 C 220.553 98.753,220.389 98.612,220.375 98.324 C 220.361 98.036,220.177 98.231,219.966 98.758 C 219.469 100.001,219.316 99.913,223.655 100.867 C 229.216 102.089,230.056 102.138,232.432 101.378 C 233.929 100.899,236.643 100.606,241.200 100.432 L 247.800 100.180 249.600 98.462 C 250.590 97.517,253.606 95.287,256.303 93.507 C 260.900 90.472,261.166 90.225,260.567 89.563 C 259.687 88.591,260.111 87.566,262.032 86.022 C 262.922 85.308,263.820 84.272,264.030 83.722 C 265.112 80.874,266.037 74.943,266.231 69.600 C 266.505 62.066,266.611 61.487,267.973 60.029 C 270.999 56.789,276.147 59.403,279.156 65.707 C 279.930 67.329,280.697 68.384,281.198 68.515 C 281.831 68.681,282.000 69.060,282.000 70.314 C 282.000 71.238,282.251 72.110,282.600 72.400 C 282.930 72.674,283.200 73.247,283.200 73.674 C 283.200 74.101,283.675 75.421,284.256 76.607 C 285.139 78.411,285.243 78.947,284.887 79.882 C 284.077 82.016,283.952 84.988,284.607 86.554 C 287.126 92.585,286.510 97.600,283.249 97.600 C 282.806 97.600,281.760 98.236,280.922 99.013 C 280.085 99.791,278.209 100.984,276.754 101.665 L 274.109 102.903 273.245 107.951 C 272.348 113.196,270.883 121.376,269.807 127.142 C 268.670 133.237,265.987 138.214,260.206 144.957 C 258.528 146.913,256.691 149.433,256.122 150.557 C 255.553 151.681,254.420 153.359,253.605 154.288 C 252.378 155.683,252.004 156.548,251.444 159.288 C 251.072 161.109,250.598 163.320,250.391 164.200 C 250.183 165.080,249.729 167.957,249.380 170.593 C 248.369 178.243,247.203 181.922,243.102 190.400 C 236.976 203.068,229.686 210.001,221.400 211.042 C 219.763 211.247,216.400 212.870,216.400 213.454 C 216.400 213.534,216.692 215.265,217.049 217.300 C 217.763 221.373,217.631 231.117,216.773 237.600 C 216.526 239.470,216.279 244.960,216.224 249.800 C 216.143 256.926,215.953 259.513,215.224 263.400 C 214.729 266.040,214.187 269.304,214.019 270.654 C 213.712 273.113,213.773 273.691,214.995 280.000 C 215.680 283.539,215.306 294.978,214.372 299.000 C 213.473 302.873,213.425 313.289,214.298 315.001 C 216.932 320.163,215.867 336.886,212.689 340.273 C 204.817 348.664,194.977 338.514,200.421 327.619 C 201.998 324.465,202.635 322.647,203.018 320.219 C 203.297 318.449,203.740 315.921,204.001 314.602 C 204.735 310.901,204.423 309.291,200.581 297.000 C 196.586 284.216,195.823 277.314,197.616 270.200 C 199.229 263.802,198.566 257.297,195.562 250.044 C 195.344 249.518,194.822 247.718,194.403 246.044 C 193.983 244.370,193.197 241.470,192.657 239.600 C 190.247 231.256,189.422 228.188,187.924 222.000 C 186.493 216.087,184.920 210.458,183.391 205.776 C 181.438 199.793,181.496 179.651,183.483 174.132 C 185.718 167.926,184.241 158.672,178.419 142.400 C 175.852 135.225,174.467 130.914,174.006 128.662 C 173.032 123.902,172.185 122.809,166.438 118.892 C 162.694 116.340,160.639 114.152,156.265 108.060 C 153.680 104.460,150.705 101.609,149.527 101.602 C 149.043 101.599,145.084 99.083,142.200 96.947 C 139.111 94.659,134.243 89.820,130.382 85.200 C 127.320 81.536,126.920 81.200,125.616 81.200 C 125.050 81.200,123.923 80.750,123.114 80.200 C 122.217 79.591,121.079 79.200,120.201 79.200 C 117.262 79.200,114.789 77.069,114.837 74.578 C 114.854 73.710,114.746 72.445,114.598 71.766 C 114.285 70.334,115.989 68.542,118.056 68.129 C 119.752 67.790,119.571 67.231,116.022 61.872 C 112.873 57.117,113.490 55.118,117.143 58.244 M258.200 107.079 C 254.921 110.108,253.268 111.130,250.871 111.611 C 249.622 111.861,246.890 112.694,244.800 113.461 C 235.591 116.842,230.400 117.988,224.242 117.999 C 222.180 118.002,224.212 125.996,229.157 137.333 C 231.216 142.053,227.290 148.310,221.796 149.063 L 220.000 149.309 220.005 152.754 C 220.009 155.067,220.275 157.055,220.816 158.800 C 221.773 161.892,223.677 166.400,224.025 166.400 C 225.034 166.400,229.143 159.787,231.804 153.881 C 232.902 151.445,233.937 150.000,236.532 147.281 C 238.359 145.367,240.321 142.990,240.893 142.000 C 241.464 141.010,242.588 139.480,243.391 138.600 C 248.857 132.606,251.249 128.272,257.412 113.200 C 258.357 110.890,259.499 108.145,259.950 107.100 C 260.966 104.749,260.726 104.746,258.200 107.079 " stroke="none" fill="#fbfbfb" fill-rule="evenodd"></path><path id="path2" d="M219.800 74.000 C 220.659 74.880,221.452 75.600,221.562 75.600 C 221.672 75.600,221.059 74.880,220.200 74.000 C 219.341 73.120,218.548 72.400,218.438 72.400 C 218.328 72.400,218.941 73.120,219.800 74.000 M129.200 73.725 C 129.200 73.794,129.785 74.379,130.500 75.025 L 131.800 76.200 130.625 74.900 C 129.530 73.688,129.200 73.416,129.200 73.725 M284.487 78.473 C 284.458 79.203,284.354 80.700,284.254 81.800 C 284.154 82.900,284.148 83.260,284.240 82.600 C 284.333 81.940,284.608 80.747,284.852 79.950 C 285.138 79.014,285.161 78.259,284.917 77.822 C 284.615 77.283,284.527 77.415,284.487 78.473 M119.100 79.082 C 119.595 79.178,120.405 79.178,120.900 79.082 C 121.395 78.987,120.990 78.909,120.000 78.909 C 119.010 78.909,118.605 78.987,119.100 79.082 M123.776 80.578 C 124.204 80.920,124.834 81.186,125.176 81.168 C 125.715 81.141,125.718 81.107,125.200 80.914 C 124.870 80.792,124.240 80.526,123.800 80.324 C 123.013 79.962,123.012 79.966,123.776 80.578 M221.693 86.400 C 221.693 87.170,221.775 87.485,221.876 87.100 C 221.976 86.715,221.976 86.085,221.876 85.700 C 221.775 85.315,221.693 85.630,221.693 86.400 M188.181 88.500 L 186.600 90.200 188.300 88.619 C 189.881 87.148,190.184 86.800,189.881 86.800 C 189.816 86.800,189.051 87.565,188.181 88.500 M188.000 90.400 L 186.600 90.695 187.876 90.747 C 188.578 90.776,189.264 90.620,189.400 90.400 C 189.536 90.180,189.592 90.024,189.524 90.053 C 189.456 90.082,188.770 90.238,188.000 90.400 M157.600 91.800 C 158.346 92.570,159.047 93.200,159.157 93.200 C 159.267 93.200,158.746 92.570,158.000 91.800 C 157.254 91.030,156.553 90.400,156.443 90.400 C 156.333 90.400,156.854 91.030,157.600 91.800 M186.800 92.800 C 186.800 93.020,187.002 93.200,187.249 93.200 C 187.543 93.200,187.508 93.442,187.149 93.900 C 186.651 94.535,186.665 94.549,187.305 94.047 C 187.846 93.623,187.904 93.367,187.556 92.947 C 187.017 92.298,186.800 92.255,186.800 92.800 M220.901 95.800 C 220.905 96.680,220.987 96.993,221.083 96.495 C 221.179 95.998,221.175 95.278,221.075 94.895 C 220.975 94.513,220.896 94.920,220.901 95.800 M182.278 106.213 C 181.660 106.756,181.314 107.200,181.508 107.200 C 181.702 107.200,182.283 106.750,182.800 106.200 C 183.995 104.928,183.731 104.934,182.278 106.213 M161.983 115.300 C 162.964 116.345,163.819 117.200,163.883 117.200 C 164.184 117.200,163.866 116.841,162.100 115.183 L 160.200 113.400 161.983 115.300 M270.656 120.884 C 270.521 121.388,270.427 122.160,270.446 122.600 C 270.465 123.040,270.645 122.698,270.846 121.840 C 271.236 120.178,271.070 119.340,270.656 120.884 M236.388 147.500 L 233.800 150.200 236.500 147.612 C 237.985 146.188,239.200 144.973,239.200 144.912 C 239.200 144.617,238.793 144.992,236.388 147.500 M220.500 149.076 C 220.885 149.176,221.515 149.176,221.900 149.076 C 222.285 148.975,221.970 148.893,221.200 148.893 C 220.430 148.893,220.115 148.975,220.500 149.076 M219.720 152.800 C 219.720 154.010,219.795 154.505,219.887 153.900 C 219.978 153.295,219.978 152.305,219.887 151.700 C 219.795 151.095,219.720 151.590,219.720 152.800 M253.775 153.700 L 252.600 155.000 253.900 153.825 C 254.615 153.179,255.200 152.594,255.200 152.525 C 255.200 152.216,254.870 152.488,253.775 153.700 M222.028 163.000 C 222.028 163.220,222.286 163.850,222.600 164.400 C 222.914 164.950,223.172 165.220,223.172 165.000 C 223.172 164.780,222.914 164.150,222.600 163.600 C 222.286 163.050,222.028 162.780,222.028 163.000 M182.868 203.600 C 182.888 204.639,183.518 206.346,183.532 205.400 C 183.538 204.960,183.389 204.240,183.200 203.800 C 182.989 203.310,182.861 203.232,182.868 203.600 M186.868 218.000 C 186.888 219.039,187.518 220.746,187.532 219.800 C 187.538 219.360,187.389 218.640,187.200 218.200 C 186.989 217.710,186.861 217.632,186.868 218.000 M216.893 234.400 C 216.893 235.170,216.975 235.485,217.076 235.100 C 217.176 234.715,217.176 234.085,217.076 233.700 C 216.975 233.315,216.893 233.630,216.893 234.400 M216.501 237.800 C 216.505 238.680,216.587 238.993,216.683 238.495 C 216.779 237.998,216.775 237.278,216.675 236.895 C 216.575 236.513,216.496 236.920,216.501 237.800 M216.114 245.400 C 216.117 246.500,216.195 246.903,216.287 246.295 C 216.379 245.686,216.377 244.786,216.282 244.295 C 216.187 243.803,216.111 244.300,216.114 245.400 M194.856 247.600 C 194.856 247.930,195.011 248.560,195.200 249.000 C 195.417 249.504,195.544 249.578,195.544 249.200 C 195.544 248.870,195.389 248.240,195.200 247.800 C 194.983 247.296,194.856 247.222,194.856 247.600 M215.331 285.000 C 215.333 286.540,215.405 287.121,215.492 286.291 C 215.579 285.461,215.577 284.201,215.489 283.491 C 215.400 282.781,215.329 283.460,215.331 285.000 M214.893 292.400 C 214.893 293.170,214.975 293.485,215.076 293.100 C 215.176 292.715,215.176 292.085,215.076 291.700 C 214.975 291.315,214.893 291.630,214.893 292.400 M214.509 296.400 C 214.509 297.390,214.587 297.795,214.682 297.300 C 214.778 296.805,214.778 295.995,214.682 295.500 C 214.587 295.005,214.509 295.410,214.509 296.400 M213.314 310.600 C 213.317 311.700,213.395 312.103,213.487 311.495 C 213.579 310.886,213.577 309.986,213.482 309.495 C 213.387 309.003,213.311 309.500,213.314 310.600 M203.301 318.600 C 203.305 319.480,203.387 319.793,203.483 319.295 C 203.579 318.798,203.575 318.078,203.475 317.695 C 203.375 317.313,203.296 317.720,203.301 318.600 M214.501 335.000 C 214.505 335.880,214.587 336.193,214.683 335.695 C 214.779 335.198,214.775 334.478,214.675 334.095 C 214.575 333.713,214.496 334.120,214.501 335.000 " stroke="none" fill="#a3a3a3" fill-rule="evenodd"></path><path id="path3" d="M266.546 69.000 C 266.547 71.200,266.614 72.049,266.695 70.887 C 266.776 69.724,266.776 67.924,266.693 66.887 C 266.611 65.849,266.545 66.800,266.546 69.000 M206.800 70.623 C 208.286 70.947,210.326 71.003,210.148 70.716 C 210.041 70.542,209.108 70.421,208.076 70.446 C 207.044 70.472,206.470 70.552,206.800 70.623 M130.000 75.000 C 130.746 75.770,131.447 76.400,131.557 76.400 C 131.667 76.400,131.146 75.770,130.400 75.000 C 129.654 74.230,128.953 73.600,128.843 73.600 C 128.733 73.600,129.254 74.230,130.000 75.000 M119.105 78.683 C 119.602 78.779,120.322 78.775,120.705 78.675 C 121.087 78.575,120.680 78.496,119.800 78.501 C 118.920 78.505,118.607 78.587,119.105 78.683 M128.000 82.200 C 128.746 82.970,129.447 83.600,129.557 83.600 C 129.667 83.600,129.146 82.970,128.400 82.200 C 127.654 81.430,126.953 80.800,126.843 80.800 C 126.733 80.800,127.254 81.430,128.000 82.200 M221.320 83.600 C 221.320 84.810,221.395 85.305,221.487 84.700 C 221.578 84.095,221.578 83.105,221.487 82.500 C 221.395 81.895,221.320 82.390,221.320 83.600 M264.467 82.780 C 264.233 83.451,264.127 84.000,264.231 84.000 C 264.501 84.000,265.256 81.922,265.057 81.724 C 264.967 81.633,264.701 82.108,264.467 82.780 M146.000 84.231 C 146.000 84.501,148.078 85.256,148.276 85.057 C 148.367 84.967,147.892 84.701,147.220 84.467 C 146.549 84.233,146.000 84.127,146.000 84.231 M188.181 88.900 L 186.600 90.600 188.300 89.019 C 189.881 87.548,190.184 87.200,189.881 87.200 C 189.816 87.200,189.051 87.965,188.181 88.900 M221.314 89.000 C 221.317 90.100,221.395 90.503,221.487 89.895 C 221.579 89.286,221.577 88.386,221.482 87.895 C 221.387 87.403,221.311 87.900,221.314 89.000 M155.200 89.800 C 156.395 91.010,157.463 92.000,157.573 92.000 C 157.683 92.000,156.795 91.010,155.600 89.800 C 154.405 88.590,153.337 87.600,153.227 87.600 C 153.117 87.600,154.005 88.590,155.200 89.800 M187.439 92.338 C 187.300 92.561,187.382 92.865,187.620 93.012 C 188.235 93.393,188.632 92.872,188.118 92.358 C 187.831 92.071,187.607 92.064,187.439 92.338 M187.343 94.308 C 187.490 94.545,187.293 94.822,186.905 94.923 C 186.368 95.063,186.415 95.118,187.100 95.154 C 188.057 95.203,188.307 94.637,187.538 94.162 C 187.264 93.992,187.185 94.051,187.343 94.308 M218.800 99.400 C 218.800 99.950,218.869 100.400,218.953 100.400 C 219.038 100.400,219.193 99.950,219.298 99.400 C 219.403 98.850,219.334 98.400,219.145 98.400 C 218.955 98.400,218.800 98.850,218.800 99.400 M220.100 100.676 C 220.485 100.776,221.115 100.776,221.500 100.676 C 221.885 100.575,221.570 100.493,220.800 100.493 C 220.030 100.493,219.715 100.575,220.100 100.676 M239.282 100.696 C 240.758 100.773,243.278 100.773,244.882 100.697 C 246.487 100.621,245.280 100.558,242.200 100.558 C 239.120 100.557,237.807 100.619,239.282 100.696 M259.970 105.100 L 259.000 106.200 260.030 105.296 C 260.596 104.799,261.181 104.514,261.330 104.663 C 261.478 104.812,261.600 104.723,261.600 104.467 C 261.600 103.699,260.999 103.933,259.970 105.100 M160.400 113.325 C 160.400 113.394,160.985 113.979,161.700 114.625 L 163.000 115.800 161.825 114.500 C 160.730 113.288,160.400 113.016,160.400 113.325 M227.305 117.487 C 227.914 117.579,228.814 117.577,229.305 117.482 C 229.797 117.387,229.300 117.311,228.200 117.314 C 227.100 117.317,226.697 117.395,227.305 117.487 M267.000 134.400 C 266.659 135.060,266.469 135.600,266.579 135.600 C 266.689 135.600,267.059 135.060,267.400 134.400 C 267.741 133.740,267.931 133.200,267.821 133.200 C 267.711 133.200,267.341 133.740,267.000 134.400 M226.175 146.500 L 225.000 147.800 226.300 146.625 C 227.015 145.979,227.600 145.394,227.600 145.325 C 227.600 145.016,227.270 145.288,226.175 146.500 M253.775 153.300 L 252.600 154.600 253.900 153.425 C 254.615 152.779,255.200 152.194,255.200 152.125 C 255.200 151.816,254.870 152.088,253.775 153.300 M184.550 166.600 C 184.551 169.020,184.616 169.958,184.696 168.685 C 184.776 167.412,184.775 165.432,184.694 164.285 C 184.614 163.138,184.549 164.180,184.550 166.600 M182.493 179.600 C 182.493 180.370,182.575 180.685,182.676 180.300 C 182.776 179.915,182.776 179.285,182.676 178.900 C 182.575 178.515,182.493 178.830,182.493 179.600 M182.501 199.000 C 182.505 199.880,182.587 200.193,182.683 199.695 C 182.779 199.198,182.775 198.478,182.675 198.095 C 182.575 197.713,182.496 198.120,182.501 199.000 M217.340 224.800 C 217.340 226.670,217.409 227.435,217.493 226.500 C 217.577 225.565,217.577 224.035,217.493 223.100 C 217.409 222.165,217.340 222.930,217.340 224.800 M216.893 230.000 C 216.893 230.770,216.975 231.085,217.076 230.700 C 217.176 230.315,217.176 229.685,217.076 229.300 C 216.975 228.915,216.893 229.230,216.893 230.000 M216.124 251.800 C 216.126 253.120,216.201 253.612,216.290 252.893 C 216.379 252.174,216.377 251.094,216.286 250.493 C 216.195 249.892,216.122 250.480,216.124 251.800 M196.893 278.400 C 196.893 279.170,196.975 279.485,197.076 279.100 C 197.176 278.715,197.176 278.085,197.076 277.700 C 196.975 277.315,196.893 277.630,196.893 278.400 M214.942 285.000 C 214.941 286.980,215.008 287.840,215.092 286.912 C 215.176 285.984,215.177 284.364,215.095 283.312 C 215.012 282.260,214.943 283.020,214.942 285.000 M213.320 306.000 C 213.320 307.210,213.395 307.705,213.487 307.100 C 213.578 306.495,213.578 305.505,213.487 304.900 C 213.395 304.295,213.320 304.790,213.320 306.000 M212.901 310.600 C 212.905 311.480,212.987 311.793,213.083 311.295 C 213.179 310.798,213.175 310.078,213.075 309.695 C 212.975 309.313,212.896 309.720,212.901 310.600 M204.520 311.600 C 204.520 312.810,204.595 313.305,204.687 312.700 C 204.778 312.095,204.778 311.105,204.687 310.500 C 204.595 309.895,204.520 310.390,204.520 311.600 M215.044 319.000 C 215.373 320.471,215.602 320.790,215.594 319.767 C 215.591 319.345,215.405 318.730,215.182 318.400 C 214.885 317.962,214.848 318.124,215.044 319.000 M215.693 322.800 C 215.693 323.570,215.775 323.885,215.876 323.500 C 215.976 323.115,215.976 322.485,215.876 322.100 C 215.775 321.715,215.693 322.030,215.693 322.800 M215.293 326.800 C 215.293 327.570,215.375 327.885,215.476 327.500 C 215.576 327.115,215.576 326.485,215.476 326.100 C 215.375 325.715,215.293 326.030,215.293 326.800 " stroke="none" fill="#747474" fill-rule="evenodd"></path><path id="path4" d="M270.305 59.083 C 270.802 59.179,271.522 59.175,271.905 59.075 C 272.287 58.975,271.880 58.896,271.000 58.901 C 270.120 58.905,269.807 58.987,270.305 59.083 M216.093 248.400 C 216.093 249.170,216.175 249.485,216.276 249.100 C 216.376 248.715,216.376 248.085,216.276 247.700 C 216.175 247.315,216.093 247.630,216.093 248.400 M196.893 276.000 C 196.893 276.770,196.975 277.085,197.076 276.700 C 197.176 276.315,197.176 275.685,197.076 275.300 C 196.975 274.915,196.893 275.230,196.893 276.000 M196.901 281.000 C 196.905 281.880,196.987 282.193,197.083 281.695 C 197.179 281.198,197.175 280.478,197.075 280.095 C 196.975 279.713,196.896 280.120,196.901 281.000 M214.901 289.800 C 214.905 290.680,214.987 290.993,215.083 290.495 C 215.179 289.998,215.175 289.278,215.075 288.895 C 214.975 288.513,214.896 288.920,214.901 289.800 " stroke="none" fill="#7c7c7c" fill-rule="evenodd"></path></g></svg>